<?xml version="1.0" encoding="UTF-8"?>
<svg version="1.1" xmlns="http://www.w3.org/2000/svg" width="1024" height="636">
<path d="M0 0 C337.92 0 675.84 0 1024 0 C1024 209.88 1024 419.76 1024 636 C686.08 636 348.16 636 0 636 C0 426.12 0 216.24 0 0 Z " fill="#FEFDFD" transform="translate(0,0)"/>
<path d="M0 0 C1.32 0 2.64 0 4 0 C4 3.3 4 6.6 4 10 C4.73199773 9.99907821 5.46399546 9.99815641 6.21817493 9.99720669 C24.0640712 9.97508167 41.9099647 9.95855447 59.75587177 9.94818783 C68.38616238 9.94304081 77.0164438 9.9360286 85.64672852 9.92456055 C93.17257941 9.91456488 100.69842366 9.90813498 108.22428101 9.90591151 C112.20578122 9.90461267 116.1872624 9.90157948 120.16875648 9.89426994 C123.92384722 9.88743256 127.67891128 9.8853986 131.43400764 9.88689232 C133.45365872 9.8864903 135.47330696 9.88113562 137.49295044 9.87557983 C139.33308968 9.87764183 139.33308968 9.87764183 141.21040344 9.87974548 C142.26216924 9.87882369 143.31393503 9.8779019 144.39757252 9.87695217 C147.29752649 9.97600567 150.09979539 10.20149284 152.98166674 10.49982542 C158.96445154 11.05174981 164.89091236 11.13917796 170.89575958 11.12584114 C172.04818529 11.12729458 173.200611 11.12874802 174.38795871 11.13024551 C177.56883804 11.13325276 180.74967858 11.13182225 183.93055638 11.12846755 C187.39795561 11.12592007 190.86535031 11.12919503 194.33274889 11.13171089 C200.40395988 11.13531605 206.47516197 11.13521702 212.54637337 11.13266373 C221.57456965 11.12887719 230.60275844 11.1308171 239.63095467 11.13387203 C255.75643693 11.1391355 271.88191523 11.13868229 288.00739788 11.13579312 C302.11911386 11.13327718 316.23082839 11.13262104 330.34254456 11.13381577 C331.27874882 11.13389215 332.21495308 11.13396854 333.17952717 11.13404724 C336.97992239 11.13435858 340.78031761 11.13467698 344.58071283 11.135007 C380.22850808 11.13806573 415.8763008 11.13529296 451.52409566 11.1299101 C483.19233466 11.12516453 514.86056963 11.12558916 546.52880859 11.13037109 C582.11156956 11.13572617 617.69432829 11.13784881 653.2770896 11.13475883 C657.07054488 11.13443811 660.86400016 11.13412527 664.65745544 11.13381577 C666.05851502 11.13369715 666.05851502 11.13369715 667.48787883 11.13357614 C681.59043566 11.13243885 695.69299088 11.1337686 709.79554749 11.13629532 C725.83139293 11.1391541 741.8672338 11.13844074 757.90307868 11.13301457 C766.8768367 11.13007819 775.8505848 11.12988677 784.82434257 11.13366075 C790.8196486 11.13590397 796.81494667 11.13450602 802.81025151 11.13015598 C806.22528615 11.12777893 809.64030109 11.12696032 813.0553351 11.13056196 C816.73832249 11.13359999 820.42125585 11.13048613 824.10424042 11.12584114 C825.15834081 11.12818231 826.2124412 11.13052347 827.29848403 11.13293558 C833.91599107 11.1162404 840.42073025 10.70929564 847 10 C845.02 9.01 843.04 8.02 841 7 C841 6.01 841 5.02 841 4 C845.21746504 4.61058822 849.09059533 5.57034241 853.125 6.9375 C854.13820313 7.27652344 855.15140625 7.61554687 856.1953125 7.96484375 C858.57272955 8.84230269 860.76755484 9.80900653 863 11 C862.859375 12.8359375 862.859375 12.8359375 862 15 C859.453125 16.4140625 859.453125 16.4140625 856.25 17.625 C855.20328125 18.02976562 854.1565625 18.43453125 853.078125 18.8515625 C852.06234375 19.23054687 851.0465625 19.60953125 850 20 C849.09378906 20.38671875 848.18757812 20.7734375 847.25390625 21.171875 C844.68698273 22.11500808 843.5257596 21.93546652 841 21 C841.33 20.01 841.66 19.02 842 18 C842.66 17.67 843.32 17.34 844 17 C811.34160953 15.71338742 778.66133747 15.78513284 745.98338752 15.70291888 C737.58357789 15.68162251 729.18378602 15.65525729 720.78399147 15.62875474 C705.72563254 15.58138944 690.66726482 15.538092 675.60888672 15.49731445 C661.17333145 15.45821706 646.73778594 15.41675121 632.30224609 15.37231445 C631.41707813 15.36959018 630.53191016 15.36686591 629.61991893 15.36405908 C626.0559011 15.35308474 622.49188328 15.34210552 618.9278655 15.33111694 C604.10197655 15.28547417 589.27608182 15.24175871 574.45018625 15.1983273 C571.13623742 15.18861648 567.8222888 15.17883827 564.50834036 15.16899753 C502.62253066 14.98542629 440.73888281 14.89850528 378.85322189 15.20192909 C372.79937047 15.23120591 366.74551005 15.25850107 360.69165039 15.28601074 C348.02365479 15.34384455 335.35566813 15.40346326 322.68768311 15.46356201 C303.57111442 15.55424901 284.45453946 15.64356337 265.33795547 15.73096704 C259.37957693 15.75826761 253.42120102 15.78598948 247.46282959 15.81480408 C235.64476576 15.87185025 223.82672315 15.9239356 212.00858688 15.96357012 C205.99936774 15.98488797 199.99038808 16.01906713 193.98129559 16.0633378 C190.14997292 16.08983951 186.31863886 16.10796763 182.48726082 16.12432003 C180.72738394 16.13366737 178.9675211 16.14653312 177.20770073 16.1634531 C167.49714625 16.25517979 158.14067955 15.87091237 148.52508545 14.45513153 C142.74738481 13.7091599 137.00376204 13.74865888 131.1875 13.8125 C130.08341797 13.81314453 128.97933594 13.81378906 127.84179688 13.81445312 C122.12297083 13.8438139 116.44085388 14.01417555 110.73418903 14.36552525 C99.01229819 15.07428929 87.32170987 15.12924371 75.58203125 15.09765625 C73.5016839 15.09578516 71.42133611 15.09436454 69.34098816 15.09336853 C63.93416064 15.08959765 58.5273611 15.07981553 53.12054443 15.06866455 C47.57580951 15.05833192 42.03106995 15.05384583 36.48632812 15.04882812 C25.65753996 15.0381869 14.82877233 15.02117799 4 15 C4.11983599 20.56447458 4.24415333 26.12882616 4.37231445 31.69311523 C4.41516079 33.57915651 4.45686159 35.46522423 4.49731445 37.35131836 C4.73931546 48.59390826 5.11734152 59.7875297 6 71 C6.66 69.35 7.32 67.7 8 66 C8.99 66 9.98 66 11 66 C10.32724019 70.75367649 9.15180958 75.25044129 7.6875 79.8125 C7.48705078 80.49248047 7.28660156 81.17246094 7.08007812 81.87304688 C6.44921875 83.83203125 6.44921875 83.83203125 5 87 C2.90942383 87.69799805 2.90942383 87.69799805 1 88 C0.44570312 86.86820313 -0.10859375 85.73640625 -0.6796875 84.5703125 C-1.4112463 83.08843697 -2.14302878 81.60667185 -2.875 80.125 C-3.23980469 79.37863281 -3.60460937 78.63226562 -3.98046875 77.86328125 C-4.33496094 77.14785156 -4.68945312 76.43242188 -5.0546875 75.6953125 C-5.54171143 74.7055542 -5.54171143 74.7055542 -6.03857422 73.69580078 C-7.00275819 71.81965314 -7.00275819 71.81965314 -9 70 C-8.625 67.875 -8.625 67.875 -8 66 C-4.78634109 67.10815825 -4.0085776 67.98529554 -2.25 71 C-1 74 -1 74 -1 76 C-0.34 76 0.32 76 1 76 C0.9285376 74.89164795 0.8570752 73.7832959 0.78344727 72.64135742 C0.00803343 59.85377144 -0.11877837 47.12056055 -0.0625 34.3125 C-0.0315625 24.2578125 -0.0315625 24.2578125 0 14 C-20.79 14.99 -20.79 14.99 -42 16 C-40.02 16.99 -38.04 17.98 -36 19 C-36.33 19.99 -36.66 20.98 -37 22 C-41.74209108 21.25481426 -45.31002229 19.40836302 -49.5 17.15625 C-52.01715168 15.99206735 -54.26971641 15.42904456 -57 15 C-56.67 13.35 -56.34 11.7 -56 10 C-54.2984375 9.87625 -54.2984375 9.87625 -52.5625 9.75 C-48.28838734 9.24135782 -44.89738254 7.77008003 -41.078125 5.83984375 C-39 5 -39 5 -35 5 C-35.375 6.9375 -35.375 6.9375 -36 9 C-36.99 9.495 -36.99 9.495 -38 10 C-25.46 10.33 -12.92 10.66 0 11 C0 7.37 0 3.74 0 0 Z " fill="#171717" transform="translate(100,514)"/>
<path d="M0 0 C0.99 0.33 1.98 0.66 3 1 C2.46146171 4.90874562 0.83148856 6.36735129 -2.125 8.875 C-5.95694329 12.19383407 -9.68603526 15.57570854 -13.35522461 19.07373047 C-22.95871204 28.20329241 -33.08339949 36.29053729 -43.9375 43.875 C-52.65852867 49.97676879 -60.63799514 57.00181453 -68.41796875 64.25390625 C-73.30212656 68.78985018 -78.48542298 72.39557271 -84.0637207 76.00415039 C-88.83244019 79.12459931 -93.28000475 82.51535956 -97.6875 86.125 C-102.98156656 90.45775213 -108.38687435 94.37117912 -114.1328125 98.09765625 C-118.05605503 100.70067957 -121.7823484 103.5327007 -125.53125 106.37890625 C-132.25202943 111.4777751 -139.07458953 116.44224415 -145.87353516 121.43603516 C-147.63067585 122.72837078 -149.38418551 124.02564182 -151.13671875 125.32421875 C-163.38032717 134.34678818 -176.05195173 142.27793841 -189.21435547 149.88378906 C-198.83713067 155.45350561 -208.25412844 161.17356582 -217.1875 167.8125 C-230.55136555 177.65955883 -244.97051893 185.81532412 -259.56103516 193.67529297 C-262.72182049 195.39205185 -265.85584959 197.1544774 -268.99072266 198.91796875 C-275.96102128 202.83471317 -282.99287161 206.55662345 -290.15966797 210.10009766 C-294.75666949 212.37389571 -299.33228323 214.68184971 -303.875 217.0625 C-305.00679687 217.65160156 -306.13859375 218.24070312 -307.3046875 218.84765625 C-310.27732935 220.48576816 -312.95184311 222.39971916 -315.6875 224.40625 C-321.16909776 228.30101489 -326.93659225 230.86499468 -333.125 233.4375 C-335.34634847 234.38759973 -337.56640449 235.34072693 -339.78515625 236.296875 C-340.85266113 236.75642578 -341.92016602 237.21597656 -343.02001953 237.68945312 C-346.92812659 239.40817496 -350.7570851 241.25351318 -354.5625 243.1875 C-355.18503662 243.50364258 -355.80757324 243.81978516 -356.44897461 244.14550781 C-358.30179411 245.09227152 -360.15130463 246.04521117 -362 247 C-370.50605716 251.38328663 -378.90776321 255.52746704 -387.8984375 258.8515625 C-394.87449375 261.43463623 -401.57039502 264.1342675 -407.94140625 267.984375 C-411.38033384 269.68099962 -415.0471041 270.70936421 -418.69555664 271.86767578 C-424.01154515 273.59070524 -429.11995071 275.66370838 -434.25 277.875 C-456.2931332 287.3274357 -479.15783925 294.83001878 -502.16308594 301.56640625 C-506.57380578 302.87495741 -510.85241088 304.29723572 -515.109375 306.046875 C-519.62915495 307.90091623 -524.14437485 309.29653713 -528.875 310.5 C-529.69685791 310.71374268 -530.51871582 310.92748535 -531.36547852 311.14770508 C-536.85860487 312.54461667 -542.36474697 313.66529652 -547.9375 314.6875 C-554.44804062 315.8855608 -560.7909172 317.45528402 -567.14453125 319.296875 C-567.87539444 319.50866394 -568.60625763 319.72045288 -569.35926819 319.93865967 C-570.88035983 320.38010695 -572.40142151 320.82165747 -573.92245483 321.26330566 C-590.41370583 326.04014445 -606.66873153 329.25598592 -623.67480469 331.54150391 C-628.0501375 332.1447987 -632.39893492 332.86895688 -636.75 333.625 C-643.66929667 334.80318572 -650.6038967 335.85610289 -657.54858398 336.87329102 C-661.52826513 337.46072196 -665.49748331 338.07365432 -669.45703125 338.78515625 C-679.04933308 340.50385299 -688.57808061 341.60900107 -698.2980957 342.35375977 C-699.69161255 342.46095337 -699.69161255 342.46095337 -701.11328125 342.5703125 C-701.93610596 342.62977051 -702.75893066 342.68922852 -703.60668945 342.75048828 C-706.11672579 343.01216911 -708.52866046 343.49544007 -711 344 C-713.50458493 344.21066602 -715.9909935 344.37651422 -718.5 344.5 C-719.27956055 344.54060547 -720.05912109 344.58121094 -720.86230469 344.62304688 C-726.98431715 344.91596613 -733.10768745 345.09375668 -739.234375 345.25 C-740.05244629 345.27098755 -740.87051758 345.2919751 -741.71337891 345.31359863 C-745.87193761 345.4188401 -750.03053618 345.51745228 -754.18945312 345.60742188 C-755.75651179 345.64447328 -757.32356914 345.68158039 -758.890625 345.71875 C-759.96011383 345.73905273 -759.96011383 345.73905273 -761.0512085 345.75976562 C-765.43949268 345.86798664 -769.66211111 346.35698084 -774 347 C-775.61199883 347.07208188 -777.22627249 347.10878433 -778.83984375 347.09765625 C-779.67451172 347.09443359 -780.50917969 347.09121094 -781.36914062 347.08789062 C-782.21669922 347.07951172 -783.06425781 347.07113281 -783.9375 347.0625 C-784.81212891 347.05798828 -785.68675781 347.05347656 -786.58789062 347.04882812 C-788.72529047 347.03714834 -790.86265463 347.01921689 -793 347 C-793.5625 345.0625 -793.5625 345.0625 -794 343 C-791.93581033 340.93581033 -787.67076034 341.59961655 -784.82421875 341.46875 C-783.55441414 341.40645203 -783.55441414 341.40645203 -782.25895691 341.34289551 C-771.16597812 340.82816419 -760.06424155 340.65125248 -748.9621582 340.44775391 C-727.54966937 340.38995128 -727.54966937 340.38995128 -706.42333984 337.46826172 C-701.60766482 336.53772931 -696.69981911 336.3750306 -691.8125 336.0625 C-683.72209333 335.47882572 -676.04063437 334.61063267 -668.125 332.84375 C-662.66988424 331.66846083 -657.14500927 330.92543312 -651.625 330.125 C-650.48482422 329.95814697 -649.34464844 329.79129395 -648.16992188 329.61938477 C-643.0766288 328.8763231 -637.98249248 328.13942571 -632.88671875 327.41357422 C-616.0525719 325.01120524 -599.44971913 322.41223072 -583 318 C-581.51956519 317.60664306 -580.03909675 317.2134127 -578.55859375 316.8203125 C-576.30424767 316.22151721 -574.05025158 315.62170418 -571.79785156 315.015625 C-564.85500788 313.16951802 -557.86261258 311.56061749 -550.86062622 309.95571899 C-535.88906058 306.51961065 -521.35218652 302.77913788 -507.01611328 297.23242188 C-500.15648249 294.60669358 -493.14277013 292.61499358 -486.08496094 290.60009766 C-469.3092231 285.771671 -453.02172379 279.81585213 -436.99169922 272.91088867 C-431.8301805 270.70772337 -426.63182465 268.78411372 -421.3125 267 C-414.74266377 264.79220455 -408.72666218 261.96345584 -402.59472656 258.74780273 C-398.94458209 256.86606531 -395.59836914 255.463418 -391.5625 254.5625 C-385.74646533 253.20831879 -380.93433115 250.45700901 -375.74145508 247.60742188 C-370.6707789 244.84028621 -365.54844545 242.36183645 -360.25 240.0625 C-353.43897814 237.10099066 -346.70275525 234.01208343 -340 230.8125 C-339.15211914 230.40845947 -338.30423828 230.00441895 -337.43066406 229.58813477 C-335.76793878 228.79210422 -334.10744559 227.99139454 -332.44921875 227.18603516 C-330.85342256 226.41327022 -329.25203644 225.65191165 -327.64453125 224.90380859 C-322.60172168 222.49860232 -317.93593983 219.71677261 -313.27734375 216.640625 C-306.89745899 212.44242373 -300.319227 208.96554053 -293.43823242 205.65447998 C-280.59067082 199.4593734 -268.07763424 192.79359119 -255.75439453 185.60595703 C-252.90365873 183.94382797 -250.04384848 182.29802862 -247.18359375 180.65234375 C-237.34289574 174.95370008 -227.86686862 169.05115735 -218.73217773 162.27685547 C-210.77111664 156.40844821 -202.59130052 151.41205452 -193.9375 146.625 C-176.51839819 136.86596693 -159.89905062 125.89456948 -144.21484375 113.515625 C-140.10702103 110.27393345 -135.89734635 107.16983691 -131.6875 104.0625 C-130.87450439 103.46228027 -130.06150879 102.86206055 -129.22387695 102.24365234 C-124.15946035 98.52695485 -119.02357522 94.94449484 -113.8125 91.4375 C-107.52115689 87.20120879 -101.68773382 82.55714669 -95.86743164 77.69946289 C-91.6706769 74.23787592 -87.39143389 71.20682148 -82.75 68.375 C-76.79663791 64.72981106 -71.88785578 60.48199122 -66.859375 55.69140625 C-57.2469754 46.64366947 -46.34921308 37.96393654 -35.1875 30.875 C-31.26906587 28.33659833 -28.17539668 25.35146904 -24.94921875 21.9921875 C-22.51678755 19.50613558 -19.92206455 17.26470057 -17.28515625 15 C-13.83450425 11.97994218 -10.47936257 8.85652877 -7.12402344 5.73120117 C-4.82482868 3.60448376 -2.61373311 1.74248874 0 0 Z " fill="#EC4133" transform="translate(894,165)"/>
<path d="M0 0 C10.22087498 -0.04650846 20.43388994 0.01523686 30.65280676 0.22639811 C78.97842975 1.2203684 127.30163758 1.14342191 175.63558241 1.11461911 C188.22301436 1.10732449 200.8104452 1.10595621 213.39787896 1.1048234 C235.83046207 1.10265528 258.26304194 1.09606607 280.69562292 1.08652079 C302.43748471 1.07728035 324.17934549 1.07022452 345.92120886 1.06601298 C346.59583779 1.06588145 347.27046672 1.06574993 347.96553895 1.06561441 C354.74275628 1.06429547 361.51997362 1.06301972 368.29719097 1.06177556 C424.78710057 1.05140111 481.27700609 1.0338173 537.76691198 1.01108134 C537.43691198 2.66108134 537.10691198 4.31108134 536.76691198 6.01108134 C527.32070022 6.14622665 517.87443554 6.27667199 508.42809153 6.40223277 C504.03424623 6.46075978 499.64042705 6.52049363 495.24664831 6.58383524 C448.29137926 7.25789937 401.34341777 7.08233027 354.38696909 6.61934817 C302.77902907 6.11258033 251.17307946 5.89862359 199.56271726 5.88825071 C193.61677231 5.88696978 187.6708324 5.88322855 181.72488928 5.87851298 C173.68240665 5.87237302 165.63994088 5.87241746 157.59745741 5.87676203 C154.63080718 5.87822344 151.66417009 5.87755645 148.69752073 5.87492335 C144.61142223 5.87148152 140.52537155 5.87619322 136.43927526 5.88168681 C135.26798795 5.87966006 134.09670063 5.87763331 132.88991976 5.87554514 C125.65640764 5.89379535 118.49583886 6.23792239 111.28346395 6.79475844 C105.72218192 7.13686419 100.17715069 7.04398765 94.60903311 6.9316498 C92.40548989 6.88760427 90.20192722 6.85202374 87.99820471 6.81816447 C84.70825644 6.76728017 81.41836295 6.71392252 78.12848425 6.65872538 C37.82538926 5.99304622 -2.47764204 5.89146135 -42.78511202 5.88753349 C-48.16960878 5.88688105 -53.55409874 5.88344235 -58.93859339 5.87878764 C-66.30461038 5.87262698 -73.67060926 5.87264711 -81.03662729 5.87682498 C-83.76755121 5.87823495 -86.49846103 5.87755561 -89.22938395 5.87490618 C-103.1439505 5.86541987 -117.00570631 5.99165296 -130.89969873 6.78784525 C-142.81219674 7.45689235 -154.75686764 6.93158219 -166.67058802 6.51108134 C-168.09571039 6.46267299 -169.5208406 6.414495 -170.94597864 6.36655009 C-174.37510907 6.2506992 -177.80412473 6.13179009 -181.23308802 6.01108134 C-177.14340905 3.77327893 -173.19219818 3.36379533 -168.60808802 2.94858134 C-167.35159338 2.83397389 -167.35159338 2.83397389 -166.06971502 2.71705115 C-159.18256424 2.12545347 -152.30565916 1.73097624 -145.39837122 1.47226298 C-144.28063224 1.43015979 -143.16289326 1.38805661 -142.0112834 1.34467757 C-129.08995105 0.8915243 -116.16769016 0.78804834 -103.2395556 0.70775831 C-99.75945789 0.68528501 -96.2793955 0.6581865 -92.79932642 0.63170207 C-86.96972764 0.58795081 -81.14011505 0.5470895 -75.31048059 0.50839579 C-67.16118603 0.45429875 -59.01193889 0.39464371 -50.86269081 0.33400011 C-44.43798772 0.28641864 -38.01327251 0.24050905 -31.58855677 0.19467509 C-30.9174807 0.18985833 -30.24640462 0.18504158 -29.55499291 0.18007886 C-25.05210993 0.1478294 -20.54921837 0.11709185 -16.04632044 0.08700907 C-14.95642313 0.07922938 -13.86652582 0.07144969 -12.74360132 0.06343424 C-8.49575345 0.03594034 -4.24787995 0.02107942 0 0 Z " fill="#628DB7" transform="translate(359.23308801651,505.9889186620712)"/>
<path d="M0 0 C1.92871094 0.22143555 1.92871094 0.22143555 4 1 C5.18847656 2.51879883 5.18847656 2.51879883 6.140625 4.45703125 C6.66269531 5.50793945 6.66269531 5.50793945 7.1953125 6.58007812 C7.71738281 7.68512695 7.71738281 7.68512695 8.25 8.8125 C8.61351563 9.53759766 8.97703125 10.26269531 9.3515625 11.00976562 C11.17592092 14.75793057 12 16.69563733 12 21 C10.1875 20.9375 10.1875 20.9375 8 20 C6.25 16.4375 6.25 16.4375 5 13 C3.93487698 23.77535541 3.85303359 34.46835041 3.8671875 45.28515625 C3.8665124 47.11787428 3.86554066 48.95059221 3.86428833 50.78330994 C3.8628244 54.59635279 3.86492582 58.40937202 3.86962891 62.22241211 C3.8753621 67.10811494 3.87201641 71.99376325 3.86605644 76.87946415 C3.86244653 80.65150872 3.86359078 84.4235403 3.86618423 88.19558525 C3.86685042 89.99811243 3.86603585 91.80064079 3.86370468 93.60316658 C3.86116714 96.11316194 3.8650327 98.62306794 3.87060547 101.13305664 C3.86858124 101.87436325 3.86655701 102.61566986 3.86447144 103.37944031 C3.87831751 106.74339275 4.01559013 109.77510235 5 113 C5.08838786 114.41720753 5.13058935 115.83785311 5.1328125 117.2578125 C5.13474609 118.44310547 5.13474609 118.44310547 5.13671875 119.65234375 C5.13285156 120.46832031 5.12898438 121.28429687 5.125 122.125 C5.12886719 122.94871094 5.13273437 123.77242188 5.13671875 124.62109375 C5.12669335 130.7466133 5.12669335 130.7466133 4 133 C3.90193466 135.78751132 3.86547027 138.55006505 3.87301636 141.33786011 C3.87145637 142.2106269 3.86989638 143.08339369 3.86828911 143.98260796 C3.86428163 146.92445734 3.86746782 149.86625565 3.87060547 152.80810547 C3.8692513 154.91025828 3.86747128 157.01241086 3.86529541 159.11456299 C3.86072241 164.837677 3.86251024 170.56077305 3.8656745 176.28388739 C3.86819945 182.26381321 3.86586012 188.24373745 3.86428833 194.22366333 C3.86246675 204.26971717 3.86487235 214.31576368 3.86962891 224.36181641 C3.87506854 235.98496238 3.87331099 247.6080908 3.8678025 259.23123634 C3.86326752 269.19813718 3.86262281 279.16503274 3.86524117 289.13193429 C3.8668022 295.09005338 3.86700251 301.04816423 3.86370468 307.00628281 C3.8608205 312.60894595 3.8628118 318.21158644 3.86859894 323.81424713 C3.86992371 325.87341652 3.86953719 327.9325878 3.86733627 329.99175644 C3.86461367 332.79725443 3.86801966 335.6026793 3.87301636 338.40817261 C3.87078564 339.22781994 3.86855491 340.04746727 3.86625659 340.8919524 C3.87858016 344.44655708 4.11234495 347.5740912 5 351 C5.08026745 352.87877624 5.10765872 354.7601615 5.09765625 356.640625 C5.09443359 357.71054687 5.09121094 358.78046875 5.08789062 359.8828125 C5.07951172 360.99398438 5.07113281 362.10515625 5.0625 363.25 C5.05798828 364.37664062 5.05347656 365.50328125 5.04882812 366.6640625 C5.03705397 369.44276217 5.0206084 372.22135409 5 375 C3.68 375 2.36 375 1 375 C1.02320312 373.81664062 1.04640625 372.63328125 1.0703125 371.4140625 C1.08909306 369.81771473 1.10729078 368.22136002 1.125 366.625 C1.14175781 365.85027344 1.15851563 365.07554687 1.17578125 364.27734375 C1.21015199 360.11848459 0.93725318 356.33338639 0.00324535 352.27411461 C-1.01562342 347.35532553 -1.27942101 342.71068049 -1.24723816 337.70010376 C-1.24965257 336.82050157 -1.25206699 335.94089938 -1.25455457 335.03464258 C-1.26014405 332.1175809 -1.25156485 329.20074289 -1.24291992 326.28369141 C-1.24399394 324.18035829 -1.24593441 322.07702546 -1.24867249 319.97369385 C-1.253503 314.28408678 -1.2458888 308.59455864 -1.23571944 302.90496111 C-1.22691481 296.94643784 -1.22869682 290.98791687 -1.2290802 285.02938843 C-1.22814499 275.03113489 -1.21947816 265.03291179 -1.20581055 255.03466797 C-1.19006079 243.47042916 -1.18481341 231.90622361 -1.1855461 220.34197485 C-1.18615596 209.21366961 -1.18105599 198.0853752 -1.17275429 186.95707321 C-1.16922137 182.22111298 -1.16739104 177.48515658 -1.16686058 172.7491951 C-1.16585759 167.17925292 -1.15976453 161.60933876 -1.14969444 156.03940582 C-1.14676924 153.99313147 -1.14554412 151.9468539 -1.14612198 149.90057755 C-1.14661138 147.11301986 -1.14096976 144.32554109 -1.13371277 141.53799438 C-1.13526137 140.72380401 -1.13680997 139.90961364 -1.1384055 139.07075083 C-1.12310034 135.52388125 -0.85616095 132.42058651 0 129 C0.09469053 126.30131978 0.13956814 123.63503308 0.125 120.9375 C0.12886719 120.21755859 0.13273437 119.49761719 0.13671875 118.75585938 C0.13080799 115.57291361 0.01350713 113.04052138 -1 110 C-1.09144208 107.18529878 -1.12598604 104.39583574 -1.11352539 101.58129883 C-1.11367142 100.72254654 -1.11381744 99.86379425 -1.1139679 98.97901917 C-1.11327079 96.1383309 -1.10548783 93.29770807 -1.09765625 90.45703125 C-1.09579135 88.48833756 -1.09436779 86.51964341 -1.09336853 84.5509491 C-1.08954901 79.36746949 -1.07972352 74.18401786 -1.06866455 69.00054932 C-1.0584383 63.7119586 -1.0538683 58.42336337 -1.04882812 53.13476562 C-1.03810077 42.75649812 -1.0210311 32.37825138 -1 22 C-1.99 22 -2.98 22 -4 22 C-3.41275531 17.00842012 -2.73379359 12.03477296 -2 7.0625 C-1.835 5.93972656 -1.67 4.81695312 -1.5 3.66015625 C-1 1 -1 1 0 0 Z " fill="#1E1E1E" transform="translate(101,130)"/>
<path d="M0 0 C3.95278508 2.98676778 5.82139303 6.36692867 7.12890625 11.05859375 C7.56574089 19.15989062 4.82360876 24.74810749 -0.34765625 30.78125 C-1.87109375 32.05859375 -1.87109375 32.05859375 -4.87109375 32.05859375 C-4.87109375 32.71859375 -4.87109375 33.37859375 -4.87109375 34.05859375 C-9.82109375 34.38859375 -14.77109375 34.71859375 -19.87109375 35.05859375 C-19.87109375 30.05859375 -19.87109375 30.05859375 -18.87109375 29.05859375 C-18.62010451 25.58650568 -18.68587279 22.10118755 -18.68359375 18.62109375 C-18.67134766 17.64076172 -18.65910156 16.66042969 -18.64648438 15.65039062 C-18.64455078 14.71388672 -18.64261719 13.77738281 -18.640625 12.8125 C-18.63651611 11.94955322 -18.63240723 11.08660645 -18.62817383 10.19750977 C-18.67059575 7.84389448 -18.67059575 7.84389448 -20.87109375 6.05859375 C-20.49609375 3.93359375 -20.49609375 3.93359375 -19.87109375 2.05859375 C-19.21109375 2.05859375 -18.55109375 2.05859375 -17.87109375 2.05859375 C-17.87109375 1.39859375 -17.87109375 0.73859375 -17.87109375 0.05859375 C-12.14059239 -2.50505159 -5.71322368 -2.87450294 0 0 Z " fill="#3F3F3F" transform="translate(758.87109375,39.94140625)"/>
<path d="M0 0 C4.78075788 1.93506867 8.03605826 5.87299251 11 10 C12.21762731 13.65288193 12.39075851 16.15754136 12 20 C9.91283629 23.67340812 7.066519 26.64449367 3 28 C2.01 28 1.02 28 0 28 C0 28.66 0 29.32 0 30 C-5.58161672 31.531464 -10.26951592 32.57307406 -16 31 C-18.5 29.5 -18.5 29.5 -20 27 C-20.77256035 19.55819415 -17.01371433 12.5723438 -14 6 C-13.34 6 -12.68 6 -12 6 C-12 5.01 -12 4.02 -12 3 C-8.70014545 -0.71233636 -4.64593376 -0.66104468 0 0 Z " fill="#3E3E3E" transform="translate(408,37)"/>
<path d="M0 0 C5.81864528 0.0536634 8.50463317 1.98401326 12.51171875 6.03125 C13.18654297 6.78921875 13.18654297 6.78921875 13.875 7.5625 C12.31036137 11.03557678 11.27518314 11.91725009 7.875 13.5625 C7.545 14.5525 7.215 15.5425 6.875 16.5625 C7.514375 16.871875 8.15375 17.18125 8.8125 17.5 C10.875 18.5625 10.875 18.5625 11.875 19.5625 C12.44076292 22.60347567 12.50021143 24.6332474 10.734375 27.2578125 C6.28735735 31.72641762 1.98433239 32.3374488 -4.16015625 32.65234375 C-7.125 32.5625 -7.125 32.5625 -13.125 31.5625 C-13.455 22.3225 -13.785 13.0825 -14.125 3.5625 C-10.66 3.0675 -10.66 3.0675 -7.125 2.5625 C-4.60656774 0.04406774 -3.5028847 0.15123875 0 0 Z " fill="#3E3E3E" transform="translate(812.125,36.4375)"/>
<path d="M0 0 C3.95458331 2.3712633 7.27022375 5.03921772 9.640625 9.05859375 C9.703125 11.12109375 9.703125 11.12109375 8.640625 13.05859375 C5.18056461 16.51865414 2.48499203 17.60795496 -2.359375 18.05859375 C-2.689375 19.04859375 -3.019375 20.03859375 -3.359375 21.05859375 C-2.76640625 21.31898437 -2.1734375 21.579375 -1.5625 21.84765625 C0.78104349 23.13577412 2.14873077 24.41897871 3.890625 26.43359375 C4.67179687 27.31144531 4.67179687 27.31144531 5.46875 28.20703125 C6.640625 30.05859375 6.640625 30.05859375 6.640625 34.05859375 C2.57660361 33.53466068 0.50429196 32.46129598 -2.484375 29.68359375 C-3.14695312 29.07773438 -3.80953125 28.471875 -4.4921875 27.84765625 C-6.13682323 26.27183373 -7.75880474 24.67904687 -9.359375 23.05859375 C-10.019375 25.36859375 -10.679375 27.67859375 -11.359375 30.05859375 C-13.009375 30.38859375 -14.659375 30.71859375 -16.359375 31.05859375 C-16.276875 29.98609375 -16.194375 28.91359375 -16.109375 27.80859375 C-16.07755462 21.9006106 -18.19538037 16.49030719 -20.359375 11.05859375 C-20.689375 10.72859375 -21.019375 10.39859375 -21.359375 10.05859375 C-21.734375 7.80859375 -21.734375 7.80859375 -21.359375 5.05859375 C-15.90549902 -1.42709661 -8.01867208 -3.19950326 0 0 Z " fill="#3E3E3E" transform="translate(268.359375,37.94140625)"/>
<path d="M0 0 C3.69170867 1.06649362 4.74324491 2.63471539 6.8125 5.8125 C7.8025 7.2975 7.8025 7.2975 8.8125 8.8125 C8.9375 11.5 8.9375 11.5 8.8125 13.8125 C9.4725 13.8125 10.1325 13.8125 10.8125 13.8125 C11.60975902 21.17290917 11.94136183 28.41010355 11.8125 35.8125 C9.921875 35.62890625 9.921875 35.62890625 7.8125 34.8125 C6.33068994 31.57795193 5.68989543 28.27821194 4.8125 24.8125 C1.5125 25.4725 -1.7875 26.1325 -5.1875 26.8125 C-5.8475 30.1125 -6.5075 33.4125 -7.1875 36.8125 C-8.8375 36.4825 -10.4875 36.1525 -12.1875 35.8125 C-12.75 33.875 -12.75 33.875 -13.1875 31.8125 C-12.8575 31.4825 -12.5275 31.1525 -12.1875 30.8125 C-12.04474723 29.27313054 -11.95911873 27.72837674 -11.8984375 26.18359375 C-11.84300781 25.23033203 -11.78757812 24.27707031 -11.73046875 23.29492188 C-11.6200579 21.29340432 -11.53087779 19.29058201 -11.46484375 17.28710938 C-11.03100984 10.67778252 -9.56673817 7.050632 -4.98168945 2.23974609 C-3.1875 0.8125 -3.1875 0.8125 0 0 Z " fill="#3C3C3C" transform="translate(673.1875,34.1875)"/>
<path d="M0 0 C1.65 0 3.3 0 5 0 C6.20248363 4.41483276 5.83498773 8.40402233 5.25 12.875 C5.17523438 13.55691406 5.10046875 14.23882812 5.0234375 14.94140625 C4.4188424 19.75068547 3.40693491 23.76075878 1 28 C-1.6875 28.9375 -1.6875 28.9375 -4 29 C-4.69867188 28.14535156 -5.39734375 27.29070313 -6.1171875 26.41015625 C-7.03627579 25.29412047 -7.95555663 24.17824326 -8.875 23.0625 C-9.33519531 22.49853516 -9.79539063 21.93457031 -10.26953125 21.35351562 C-12.75550782 18.22954674 -12.75550782 18.22954674 -16 16 C-15.99476318 16.59538574 -15.98952637 17.19077148 -15.98413086 17.80419922 C-15.96338001 20.49445547 -15.95034593 23.18469489 -15.9375 25.875 C-15.92912109 26.81214844 -15.92074219 27.74929687 -15.91210938 28.71484375 C-15.90888672 29.61074219 -15.90566406 30.50664063 -15.90234375 31.4296875 C-15.89710693 32.25710449 -15.89187012 33.08452148 -15.88647461 33.93701172 C-16 36 -16 36 -17 38 C-20.875 37.125 -20.875 37.125 -22 36 C-22.09927221 34.5678579 -22.13079987 33.1308897 -22.1328125 31.6953125 C-22.13474609 30.80610107 -22.13667969 29.91688965 -22.13867188 29.00073242 C-22.13416016 28.05174072 -22.12964844 27.10274902 -22.125 26.125 C-22.12306641 25.17149658 -22.12113281 24.21799316 -22.11914062 23.2355957 C-22.07954603 16.78332643 -21.83992507 10.40442868 -21 4 C-19.35 3.67 -17.7 3.34 -16 3 C-15.125 4.16666667 -14.25 5.33333333 -13.375 6.5 C-12.83101562 7.22316406 -12.28703125 7.94632813 -11.7265625 8.69140625 C-10.58797259 10.21381946 -9.45754392 11.74237534 -8.3359375 13.27734375 C-7.81257812 13.99019531 -7.28921875 14.70304687 -6.75 15.4375 C-6.27046875 16.09621094 -5.7909375 16.75492188 -5.296875 17.43359375 C-4.06548456 19.1354852 -4.06548456 19.1354852 -2 20 C-1.90912109 18.08574219 -1.90912109 18.08574219 -1.81640625 16.1328125 C-1.73200432 14.46352984 -1.64735614 12.79425963 -1.5625 11.125 C-1.52318359 10.28324219 -1.48386719 9.44148438 -1.44335938 8.57421875 C-1.40146484 7.76855469 -1.35957031 6.96289062 -1.31640625 6.1328125 C-1.27974854 5.38918457 -1.24309082 4.64555664 -1.20532227 3.87939453 C-1 2 -1 2 0 0 Z " fill="#3D3D3D" transform="translate(179,36)"/>
<path d="M0 0 C2.625 -0.1875 2.625 -0.1875 5 0 C6.22101598 4.44241985 5.80090025 8.44340427 5.1875 12.9375 C5.10435547 13.62779297 5.02121094 14.31808594 4.93554688 15.02929688 C4.3917919 19.21660712 3.65397563 23.10590298 2 27 C-1 29 -1 29 -2.875 28.9375 C-7.14774731 27.05246442 -9.62374063 23.5754555 -12.125 19.75 C-13.77064122 16.73996108 -13.77064122 16.73996108 -17 16 C-17 22.93 -17 29.86 -17 37 C-18.32 37 -19.64 37 -21 37 C-22.56468237 35.43531763 -22.12974375 33.90205105 -22.1328125 31.73046875 C-22.13474609 30.84641357 -22.13667969 29.9623584 -22.13867188 29.05151367 C-22.13416016 28.10638916 -22.12964844 27.16126465 -22.125 26.1875 C-22.12209961 24.76111206 -22.12209961 24.76111206 -22.11914062 23.3059082 C-22.07737329 16.49029055 -21.78547561 9.7747271 -21 3 C-18.2734375 3.12890625 -18.2734375 3.12890625 -15 4 C-12.6640625 6.65234375 -12.6640625 6.65234375 -10.625 9.9375 C-9.59246094 11.55978516 -9.59246094 11.55978516 -8.5390625 13.21484375 C-7 16 -7 16 -7 18 C-5.68 18.33 -4.36 18.66 -3 19 C-2.95101562 17.87980469 -2.90203125 16.75960937 -2.8515625 15.60546875 C-2.77652144 14.13278797 -2.70097418 12.66013293 -2.625 11.1875 C-2.57859375 10.08051758 -2.57859375 10.08051758 -2.53125 8.95117188 C-2.32653852 5.18106885 -2.13566173 3.20349259 0 0 Z " fill="#3F3F3F" transform="translate(614,36)"/>
<path d="M0 0 C1.03253906 0.00676758 1.03253906 0.00676758 2.0859375 0.01367188 C3.76566335 0.02533664 5.44534375 0.04326729 7.125 0.0625 C7.125 1.3825 7.125 2.7025 7.125 4.0625 C5.04358446 6.14391554 0.93893047 5.79338761 -1.9375 6.125 C-3.07541992 6.26131836 -3.07541992 6.26131836 -4.23632812 6.40039062 C-6.1154301 6.6249374 -7.99516095 6.84420978 -9.875 7.0625 C-10.535 8.7125 -11.195 10.3625 -11.875 12.0625 C-7.585 12.0625 -3.295 12.0625 1.125 12.0625 C1.455 13.3825 1.785 14.7025 2.125 16.0625 C-0.36531084 18.13775903 -2.16589974 19.06899557 -5.43359375 19.0390625 C-7.92838223 18.77719818 -10.39865349 18.46160051 -12.875 18.0625 C-12.875 20.3725 -12.875 22.6825 -12.875 25.0625 C-7.265 25.0625 -1.655 25.0625 4.125 25.0625 C3.795 26.3825 3.465 27.7025 3.125 29.0625 C-3.65968296 31.48560106 -10.70044084 31.94152819 -17.875 32.0625 C-18.535 31.7325 -19.195 31.4025 -19.875 31.0625 C-19.73595156 27.31221611 -19.58758389 23.56235719 -19.4375 19.8125 C-19.37852539 18.21728516 -19.37852539 18.21728516 -19.31835938 16.58984375 C-19.27646484 15.56503906 -19.23457031 14.54023437 -19.19140625 13.484375 C-19.15474854 12.54174805 -19.11809082 11.59912109 -19.08032227 10.62792969 C-18.614009 4.801509 -18.614009 4.801509 -16.1875 2.375 C-11.23558493 -0.43554639 -5.55256887 -0.06994515 0 0 Z " fill="#404040" transform="translate(298.875,35.9375)"/>
<path d="M0 0 C1.03253906 0.00676758 1.03253906 0.00676758 2.0859375 0.01367188 C3.76566335 0.02533664 5.44534375 0.04326729 7.125 0.0625 C7.125 1.3825 7.125 2.7025 7.125 4.0625 C5.04358446 6.14391554 0.93893047 5.79338761 -1.9375 6.125 C-3.07541992 6.26131836 -3.07541992 6.26131836 -4.23632812 6.40039062 C-6.1154301 6.6249374 -7.99516095 6.84420978 -9.875 7.0625 C-10.535 8.7125 -11.195 10.3625 -11.875 12.0625 C-11.03195312 12.02769531 -10.18890625 11.99289063 -9.3203125 11.95703125 C-8.22460938 11.92996094 -7.12890625 11.90289062 -6 11.875 C-4.90945313 11.84019531 -3.81890625 11.80539063 -2.6953125 11.76953125 C-1.76460937 11.86621094 -0.83390625 11.96289062 0.125 12.0625 C1.115 13.5475 1.115 13.5475 2.125 15.0625 C-0.15931738 17.42050504 -1.8831024 18.94970897 -5.2109375 19.328125 C-7.44420205 19.314035 -9.64882441 19.23710201 -11.875 19.0625 C-12.205 21.0425 -12.535 23.0225 -12.875 25.0625 C-7.265 25.0625 -1.655 25.0625 4.125 25.0625 C3.795 26.3825 3.465 27.7025 3.125 29.0625 C-1.92747553 30.67876656 -6.4764184 31.40416823 -11.8125 31.6875 C-12.49634766 31.72617188 -13.18019531 31.76484375 -13.88476562 31.8046875 C-15.54779513 31.89772412 -17.21135847 31.98113787 -18.875 32.0625 C-20.13102223 29.55045553 -19.91798795 27.99651085 -19.7890625 25.1953125 C-19.74523437 24.22722656 -19.70140625 23.25914063 -19.65625 22.26171875 C-19.6046875 21.24722656 -19.553125 20.23273437 -19.5 19.1875 C-19.45617187 18.18074219 -19.41234375 17.17398438 -19.3671875 16.13671875 C-18.83587212 5.02337212 -18.83587212 5.02337212 -16.1875 2.375 C-11.23558493 -0.43554639 -5.55256887 -0.06994515 0 0 Z " fill="#3E3E3E" transform="translate(524.875,35.9375)"/>
<path d="M0 0 C2.5625 0.25 2.5625 0.25 5 1 C6.45620703 3.91241407 6.17039431 6.50676154 6.1875 9.75 C6.20167969 10.96171875 6.21585937 12.1734375 6.23046875 13.421875 C5.93310284 18.03860676 5.32982676 21.67017324 2 25 C-0.3125 25.5 -0.3125 25.5 -3 25 C-5.87282247 22.05710869 -7.92151519 19.11884843 -10.1875 15.6875 C-11.72515423 12.93263584 -11.72515423 12.93263584 -14 12 C-13.814375 13.155 -13.62875 14.31 -13.4375 15.5 C-12.88979777 19.89726647 -13.17399406 23.64469595 -14 28 C-14.66 28.66 -15.32 29.32 -16 30 C-17.65 29.67 -19.3 29.34 -21 29 C-20.67 20.42 -20.34 11.84 -20 3 C-15 2 -15 2 -13.12109375 2.8203125 C-9.57325114 5.56968473 -6.49749216 8.20381191 -4 12 C-4 12.99 -4 13.98 -4 15 C-3.01 15 -2.02 15 -1 15 C-1.09539062 14.08476563 -1.19078125 13.16953125 -1.2890625 12.2265625 C-1.39992188 11.03804687 -1.51078125 9.84953125 -1.625 8.625 C-1.79902344 6.84996094 -1.79902344 6.84996094 -1.9765625 5.0390625 C-1.98429687 4.03617188 -1.99203125 3.03328125 -2 2 C-1.34 1.34 -0.68 0.68 0 0 Z " fill="#3C3C3C" transform="translate(444,36)"/>
<path d="M0 0 C0.5625 1.9375 0.5625 1.9375 1 4 C-1.14468649 6.14468649 -5.58444894 5.7395788 -8.5625 6.0625 C-9.36880859 6.15337891 -10.17511719 6.24425781 -11.00585938 6.33789062 C-13.00347377 6.56247449 -15.0016856 6.78173236 -17 7 C-17.66 8.65 -18.32 10.3 -19 12 C-14.71 12 -10.42 12 -6 12 C-5.67 13.32 -5.34 14.64 -5 16 C-7.41698499 17.94918144 -9.18746401 19.00815254 -12.3359375 18.9765625 C-14.57364473 18.71537901 -16.78327805 18.40084514 -19 18 C-19.33 20.31 -19.66 22.62 -20 25 C-14.06 25 -8.12 25 -2 25 C-3 29 -3 29 -4 30 C-7.47944134 30.53768609 -10.99494836 30.80054281 -14.5 31.125 C-15.98306641 31.27388672 -15.98306641 31.27388672 -17.49609375 31.42578125 C-18.43582031 31.51472656 -19.37554688 31.60367188 -20.34375 31.6953125 C-21.64602539 31.8193042 -21.64602539 31.8193042 -22.97460938 31.94580078 C-23.64298828 31.96368652 -24.31136719 31.98157227 -25 32 C-26 31 -26 31 -26.03759766 28.85449219 C-25.99683105 27.92797852 -25.95606445 27.00146484 -25.9140625 26.046875 C-25.87023437 25.03496094 -25.82640625 24.02304687 -25.78125 22.98046875 C-25.7296875 21.91441406 -25.678125 20.84835938 -25.625 19.75 C-25.58117187 18.69941406 -25.53734375 17.64882813 -25.4921875 16.56640625 C-25.03515373 6.54974948 -25.03515373 6.54974948 -24 3 C-17.14125398 -1.57249735 -7.92663318 -0.09894549 0 0 Z " fill="#3B3B3B" transform="translate(794,36)"/>
<path d="M0 0 C0.5625 1.9375 0.5625 1.9375 1 4 C-1.14468649 6.14468649 -5.58444894 5.7395788 -8.5625 6.0625 C-9.36880859 6.15337891 -10.17511719 6.24425781 -11.00585938 6.33789062 C-13.00347377 6.56247449 -15.0016856 6.78173236 -17 7 C-17.66 8.65 -18.32 10.3 -19 12 C-14.71 12 -10.42 12 -6 12 C-5.67 13.32 -5.34 14.64 -5 16 C-9.56327794 19.53286034 -13.49633208 19.32374517 -19 19 C-19.33 20.98 -19.66 22.96 -20 25 C-14.39 25 -8.78 25 -3 25 C-3.33 26.32 -3.66 27.64 -4 29 C-10.78380893 31.4227889 -17.82617043 31.87498688 -25 32 C-26 31 -26 31 -26.03759766 28.85449219 C-25.99683105 27.92797852 -25.95606445 27.00146484 -25.9140625 26.046875 C-25.87023437 25.03496094 -25.82640625 24.02304687 -25.78125 22.98046875 C-25.7296875 21.91441406 -25.678125 20.84835938 -25.625 19.75 C-25.58117187 18.69941406 -25.53734375 17.64882813 -25.4921875 16.56640625 C-25.03515373 6.54974948 -25.03515373 6.54974948 -24 3 C-17.14125398 -1.57249735 -7.92663318 -0.09894549 0 0 Z " fill="#3A3A3A" transform="translate(244,36)"/>
<path d="M0 0 C0.99 0 1.98 0 3 0 C3 5.28 3 10.56 3 16 C6.4340625 15.7834375 6.4340625 15.7834375 9.9375 15.5625 C11.22527344 15.48128906 12.51304687 15.40007813 13.83984375 15.31640625 C16.86023957 15.35080812 16.86023957 15.35080812 18 14 C18.23363881 12.15108054 18.41303635 10.29511969 18.5625 8.4375 C18.64628906 7.42558594 18.73007812 6.41367187 18.81640625 5.37109375 C18.90728516 4.19740234 18.90728516 4.19740234 19 3 C19.99 2.67 20.98 2.34 22 2 C22.66 2.33 23.32 2.66 24 3 C24 11.58 24 20.16 24 29 C22.68 29.33 21.36 29.66 20 30 C18.39274365 26.78548731 18.94251815 23.56387464 19 20 C16.7077546 20.30822621 14.41621545 20.62170874 12.125 20.9375 C10.84882812 21.11152344 9.57265625 21.28554688 8.2578125 21.46484375 C5.12440546 21.81433227 5.12440546 21.81433227 3 23 C2.53348793 25.12576782 2.53348793 25.12576782 2.375 27.5625 C2.30023437 28.38878906 2.22546875 29.21507813 2.1484375 30.06640625 C2.09945312 30.70449219 2.05046875 31.34257813 2 32 C0.02 32.495 0.02 32.495 -2 33 C-2.02929981 29.16668301 -2.04689897 25.33339529 -2.0625 21.5 C-2.07087891 20.42234375 -2.07925781 19.3446875 -2.08789062 18.234375 C-2.10569473 12.39462795 -1.98121539 6.76378272 -1 1 C-0.67 0.67 -0.34 0.34 0 0 Z " fill="#3F3F3F" transform="translate(565,39)"/>
<path d="M0 0 C1.125 1.6875 1.125 1.6875 0.8125 3.875 C0.4721875 4.7721875 0.4721875 4.7721875 0.125 5.6875 C-0.90625 5.584375 -1.9375 5.48125 -3 5.375 C-8.10286469 5.78652135 -9.31081347 7.12331347 -12.875 10.6875 C-15.22049674 14.20574511 -15.45491403 15.54525694 -14.875 19.6875 C-12.57190883 22.64861722 -10.78145088 24.31165451 -7.3125 25.75 C-3.931182 25.66329954 -3.16859496 24.05276981 -0.875 21.6875 C1.875 21.4375 1.875 21.4375 4.125 21.6875 C3.89274367 25.17134489 3.74508825 27.0874146 1.1875 29.5625 C-3.22906306 31.18491092 -7.22586451 31.36549893 -11.875 30.6875 C-17.00808791 28.07429161 -20.0547908 25.14812759 -21.875 19.6875 C-22.69218889 14.44300926 -22.3653306 10.72618344 -19.1875 6.375 C-14.04343341 0.29894959 -7.82580473 -5.47806331 0 0 Z " fill="#3F3F3F" transform="translate(654.875,38.3125)"/>
<path d="M0 0 C9 0 9 0 13 2 C15.87554308 5.49173088 16.47185117 8.49316098 16.29296875 13.0078125 C15.64786227 17.39453655 13.51440297 21.2966131 10 24 C6.21820543 25.89089729 4.44485998 26 0 26 C0 17.42 0 8.84 0 0 Z " fill="#F4F4F4" transform="translate(745,44)"/>
<path d="M0 0 C0.5775 0.37125 1.155 0.7425 1.75 1.125 C1.68941406 1.69605469 1.62882813 2.26710937 1.56640625 2.85546875 C0.83458923 9.93720577 0.27870414 17.02525871 -0.25 24.125 C5.03 24.455 10.31 24.785 15.75 25.125 C16.08 26.775 16.41 28.425 16.75 30.125 C12.43726455 31.29464777 8.19441121 31.62156342 3.75 31.9375 C2.94304688 32.01419922 2.13609375 32.09089844 1.3046875 32.16992188 C-2.39444711 32.42324545 -4.5536584 32.5294301 -7.8125 30.63671875 C-11.16772631 24.77419016 -8.96596212 16.66319181 -8 10.25 C-7.89042969 9.39664063 -7.78085937 8.54328125 -7.66796875 7.6640625 C-7.54550781 6.849375 -7.42304687 6.0346875 -7.296875 5.1953125 C-7.19213867 4.46070801 -7.08740234 3.72610352 -6.97949219 2.96923828 C-6.25 1.125 -6.25 1.125 -4.32519531 -0.18408203 C-2.25 -0.875 -2.25 -0.875 0 0 Z " fill="#3E3E3E" transform="translate(696.25,35.875)"/>
<path d="M0 0 C0.99 0.66 1.98 1.32 3 2 C2.67 3.65 2.34 5.3 2 7 C1.154375 6.71125 0.30875 6.4225 -0.5625 6.125 C-5.01582261 5.963061 -6.30096204 7.3722696 -9.484375 10.26171875 C-11.7719762 12.88538508 -12.89099226 15.10613651 -13.3125 18.5625 C-12.94069905 21.4625474 -12.14331595 22.12459854 -10 24 C-10 24.66 -10 25.32 -10 26 C-5.28400182 26.92470553 -2.32734391 27.22923777 2 25 C2 24.34 2 23.68 2 23 C3.32 23 4.64 23 6 23 C5.51128197 28.49807789 5.51128197 28.49807789 3.29296875 30.67578125 C-0.85379262 33.07058893 -5.35695412 32.5174271 -10 32 C-14.88885467 29.86112608 -17.87377759 26.85618698 -20 22 C-20.78077705 18.0060251 -20.76073714 14.46900966 -18.8671875 10.8125 C-14.18255244 4.33740232 -8.56722334 -2.35598642 0 0 Z " fill="#3C3C3C" transform="translate(555,37)"/>
<path d="M0 0 C9.57 0 19.14 0 29 0 C29 1.65 29 3.3 29 5 C25.79619983 7.13586678 24.98060033 7.23132175 21.3125 7.125 C20.50425781 7.10695313 19.69601562 7.08890625 18.86328125 7.0703125 C17.94095703 7.03550781 17.94095703 7.03550781 17 7 C17.01047363 7.59014893 17.02094727 8.18029785 17.03173828 8.78833008 C17.07332044 11.46301004 17.0993329 14.13762197 17.125 16.8125 C17.14175781 17.74126953 17.15851563 18.67003906 17.17578125 19.62695312 C17.18222656 20.51962891 17.18867188 21.41230469 17.1953125 22.33203125 C17.20578613 23.15421143 17.21625977 23.9763916 17.22705078 24.82348633 C17 27 17 27 15 30 C13.35 29.67 11.7 29.34 10 29 C10.33 21.41 10.66 13.82 11 6 C8.69 6.33 6.38 6.66 4 7 C1.5625 5.8125 1.5625 5.8125 0 4 C0 2.68 0 1.36 0 0 Z " fill="#434343" transform="translate(334,40)"/>
<path d="M0 0 C9.57 0 19.14 0 29 0 C29 1.65 29 3.3 29 5 C25.79619983 7.13586678 24.98060033 7.23132175 21.3125 7.125 C20.50425781 7.10695313 19.69601563 7.08890625 18.86328125 7.0703125 C17.94095703 7.03550781 17.94095703 7.03550781 17 7 C17.01047363 7.59014893 17.02094727 8.18029785 17.03173828 8.78833008 C17.07332044 11.46301004 17.0993329 14.13762197 17.125 16.8125 C17.14175781 17.74126953 17.15851563 18.67003906 17.17578125 19.62695312 C17.18222656 20.51962891 17.18867188 21.41230469 17.1953125 22.33203125 C17.20578613 23.15421143 17.21625977 23.9763916 17.22705078 24.82348633 C17 27 17 27 15 30 C13.35 29.67 11.7 29.34 10 29 C10.33 21.41 10.66 13.82 11 6 C8.69 6.33 6.38 6.66 4 7 C1.5625 5.8125 1.5625 5.8125 0 4 C0 2.68 0 1.36 0 0 Z " fill="#434343" transform="translate(187,40)"/>
<path d="M0 0 C0 0.99 0 1.98 0 3 C-2.3359375 4.68359375 -2.3359375 4.68359375 -5.375 6.4375 C-10.29157732 9.23328899 -10.29157732 9.23328899 -13 14 C-12.278125 14.2475 -11.55625 14.495 -10.8125 14.75 C-6.40631688 16.70830361 -3.72403982 18.9022622 -1.0625 22.9375 C0 26 0 26 -0.5 28.6875 C-2.73871853 32.13885774 -5.31460978 33.47030593 -9.1875 34.6875 C-13.4559417 35.1617713 -17.71021375 35.07496714 -22 35 C-22.33 33.35 -22.66 31.7 -23 30 C-21.824375 30.04125 -20.64875 30.0825 -19.4375 30.125 C-15.23890561 30.11752919 -11.92200653 29.52077804 -8 28 C-7.67 27.01 -7.34 26.02 -7 25 C-10.60700972 20.76568424 -15.14586161 18.5307901 -20 16 C-20.20086443 12.28400809 -20.1519437 11.22791555 -18 8 C-12.84490851 2.37891154 -7.69499736 -0.80156223 0 0 Z " fill="#404040" transform="translate(332,35)"/>
<path d="M0 0 C1.58294782 -0.05437607 3.16644256 -0.09296271 4.75 -0.125 C5.63171875 -0.14820313 6.5134375 -0.17140625 7.421875 -0.1953125 C10.1135858 0.00860498 11.69904974 0.63448279 14 2 C12.44499019 5.81684226 9.96404505 8.19195732 7 11 C10.63 11 14.26 11 18 11 C17.67 11.99 17.34 12.98 17 14 C16.01 14.33 15.02 14.66 14 15 C14.165 15.66 14.33 16.32 14.5 17 C15.12183299 20.73099794 15.06408926 24.21873378 15 28 C12.68715544 27.85973717 10.37472409 27.71264442 8.0625 27.5625 C6.13083984 27.44068359 6.13083984 27.44068359 4.16015625 27.31640625 C1 27 1 27 0 26 C-0.09955104 24.06461065 -0.12968668 22.12544231 -0.125 20.1875 C-0.12757812 19.12917969 -0.13015625 18.07085937 -0.1328125 16.98046875 C0.07522124 12.3119469 0.07522124 12.3119469 1 10 C2.59375 8.5859375 2.59375 8.5859375 4.5 7.375 C7.26274124 5.66531892 7.26274124 5.66531892 9 3 C6.03 2.67 3.06 2.34 0 2 C0 1.34 0 0.68 0 0 Z " fill="#EEEFEE" transform="translate(71,276)"/>
<path d="M0 0 C4.45365132 1.39971899 7.16232562 3.27048511 10 7 C10.72462548 10.46736678 10.80299132 13.70629176 8.875 16.8125 C3.49705421 20.21853233 -1.55341302 22.25786348 -8 22 C-8.99 21.34 -9.98 20.68 -11 20 C-10.53965428 14.47585139 -9.30172855 9.55952991 -6 5 C-4.67657479 4.3138747 -3.34321038 3.64653545 -2 3 C-1.34 2.01 -0.68 1.02 0 0 Z " fill="#F7F7F7" transform="translate(404,42)"/>
<path d="M0 0 C9.24 0 18.48 0 28 0 C28.33 1.65 28.66 3.3 29 5 C25.68629 7.20914 24.6553979 7.22481553 20.8125 7.125 C19.91144531 7.10695313 19.01039063 7.08890625 18.08203125 7.0703125 C17.39496094 7.04710937 16.70789063 7.02390625 16 7 C16.00785522 7.93851807 16.00785522 7.93851807 16.01586914 8.89599609 C16.03661618 11.72232057 16.04965286 14.54862905 16.0625 17.375 C16.07087891 18.35984375 16.07925781 19.3446875 16.08789062 20.359375 C16.09272461 21.77089844 16.09272461 21.77089844 16.09765625 23.2109375 C16.10551147 24.51490479 16.10551147 24.51490479 16.11352539 25.84521484 C16 28 16 28 15 30 C13.35 29.67 11.7 29.34 10 29 C10.33 21.41 10.66 13.82 11 6 C8.36 6.33 5.72 6.66 3 7 C2.01 6.34 1.02 5.68 0 5 C0 3.35 0 1.7 0 0 Z " fill="#3E3E3E" transform="translate(828,40)"/>
<path d="M0 0 C9.24 0 18.48 0 28 0 C28.33 1.65 28.66 3.3 29 5 C25.68629 7.20914 24.6553979 7.22481553 20.8125 7.125 C19.91144531 7.10695313 19.01039063 7.08890625 18.08203125 7.0703125 C17.39496094 7.04710937 16.70789063 7.02390625 16 7 C16.00785522 7.93851807 16.00785522 7.93851807 16.01586914 8.89599609 C16.03661618 11.72232057 16.04965286 14.54862905 16.0625 17.375 C16.07087891 18.35984375 16.07925781 19.3446875 16.08789062 20.359375 C16.09272461 21.77089844 16.09272461 21.77089844 16.09765625 23.2109375 C16.10551147 24.51490479 16.10551147 24.51490479 16.11352539 25.84521484 C16 28 16 28 15 30 C13.35 29.67 11.7 29.34 10 29 C10.33 21.41 10.66 13.82 11 6 C8.36 6.33 5.72 6.66 3 7 C2.01 6.34 1.02 5.68 0 5 C0 3.35 0 1.7 0 0 Z " fill="#3E3E3E" transform="translate(475,40)"/>
<path d="M0 0 C2.97 0.495 2.97 0.495 6 1 C6.24299831 8.64094678 5.92830677 16.09190681 5.125 23.6875 C5.04652832 24.47753418 4.96805664 25.26756836 4.88720703 26.08154297 C4.24347391 31.75652609 4.24347391 31.75652609 2 34 C-1.125 34.125 -1.125 34.125 -4 34 C-4.05459773 32.43789839 -4.09306101 30.87522911 -4.125 29.3125 C-4.14820313 28.44238281 -4.17140625 27.57226562 -4.1953125 26.67578125 C-4 24 -4 24 -3.02734375 21.7109375 C-1.59557533 17.93281096 -1.57693121 14.3219976 -1.4375 10.3125 C-1.12058024 2.24116047 -1.12058024 2.24116047 0 0 Z " fill="#3C3C3C" transform="translate(625,38)"/>
<path d="M0 0 C0.66 1.32 1.32 2.64 2 4 C-0.22661567 5.81427944 -1.93296585 6.97817493 -4.6875 7.875 C-5.8321875 8.431875 -5.8321875 8.431875 -7 9 C-7.89386164 11.54775306 -7.89386164 11.54775306 -8 14 C-7.37351562 13.97679687 -6.74703125 13.95359375 -6.1015625 13.9296875 C-5.28429687 13.91164063 -4.46703125 13.89359375 -3.625 13.875 C-2.81289063 13.85179687 -2.00078125 13.82859375 -1.1640625 13.8046875 C1 14 1 14 3 16 C3 17.32 3 18.64 3 20 C-2.89531049 22.00691421 -6.33187555 22 -13 22 C-13 15.4 -13 8.8 -13 2 C-7.78374381 0.50964109 -5.07210297 -0.24741966 0 0 Z " fill="#F0F0F0" transform="translate(816,42)"/>
<path d="M0 0 C4.21746504 0.61058822 8.09059533 1.57034241 12.125 2.9375 C13.13820313 3.27652344 14.15140625 3.61554687 15.1953125 3.96484375 C17.57272955 4.84230269 19.76755484 5.80900653 22 7 C21.859375 8.8359375 21.859375 8.8359375 21 11 C18.453125 12.4140625 18.453125 12.4140625 15.25 13.625 C14.20328125 14.02976562 13.1565625 14.43453125 12.078125 14.8515625 C11.06234375 15.23054687 10.0465625 15.60953125 9 16 C8.09378906 16.38671875 7.18757812 16.7734375 6.25390625 17.171875 C3.68698273 18.11500808 2.5257596 17.93546652 0 17 C0.495 15.515 0.495 15.515 1 14 C1.66 13.67 2.32 13.34 3 13 C-8.88 12.67 -20.76 12.34 -33 12 C-33 11.67 -33 11.34 -33 11 C-26.91291842 10.83262234 -20.82571052 10.67203843 -14.73828125 10.51782227 C-12.66629175 10.4643652 -10.59434976 10.40903303 -8.52246094 10.35180664 C-5.54893237 10.26999904 -2.57529961 10.19487778 0.3984375 10.12109375 C1.32868744 10.09405869 2.25893738 10.06702362 3.21737671 10.03916931 C4.07811798 10.01907303 4.93885925 9.99897675 5.82568359 9.97827148 C6.58513275 9.95828598 7.34458191 9.93830048 8.12704468 9.91770935 C10 10 10 10 12 11 C12 10.01 12 9.02 12 8 C6.39 8 0.78 8 -5 8 C-5 7.67 -5 7.34 -5 7 C-1.37 6.67 2.26 6.34 6 6 C4.02 5.01 2.04 4.02 0 3 C0 2.01 0 1.02 0 0 Z " fill="#303030" transform="translate(941,518)"/>
<path d="M0 0 C2.66540819 1.53583 3.79828754 2.48685701 4.93359375 5.375 C5.09988281 6.24125 5.26617187 7.1075 5.4375 8 C5.62183594 8.86625 5.80617188 9.7325 5.99609375 10.625 C6 13 6 13 4.671875 14.8125 C3 16 3 16 0.8125 16 C-3.16993064 14.58402466 -6.50559776 12.34983377 -10 10 C-9.40140845 3.65492958 -9.40140845 3.65492958 -7.8125 1.0625 C-5.07756873 -0.54073557 -3.1096607 -0.38077478 0 0 Z " fill="#2B303A" transform="translate(81,391)"/>
<path d="M0 0 C3.32089631 1.44757019 4.55615731 2.97172273 6.4375 6.0625 C7.3125 9.6875 7.3125 9.6875 7.4375 13.0625 C6.4475 14.5475 6.4475 14.5475 5.4375 16.0625 C1.45204416 16.69654979 -0.29194885 16.2185872 -3.8125 14.1875 C-6.5625 12.0625 -6.5625 12.0625 -8.5625 10.0625 C-8.4778545 6.16880688 -7.97622682 4.51070405 -5.3125 1.625 C-2.5625 0.0625 -2.5625 0.0625 0 0 Z " fill="#332F31" transform="translate(79.5625,465.9375)"/>
<path d="M0 0 C2 2 2 2 2.375 5.875 C2.27958077 8.79588871 2.07286435 9.88159543 0.5 12.4375 C-3.01825161 14.63640725 -5.87476285 14.72498419 -10 15 C-10.33 10.05 -10.66 5.1 -11 0 C-6.49409249 -0.9011815 -4.31331799 -1.05436662 0 0 Z " fill="#1C1616" transform="translate(772,474)"/>
<path d="M0 0 C0.64766283 4.29076625 0.49945051 6.28203989 -2 9.875 C-5.87218174 12.6177954 -8.30964199 12.76150722 -13 13 C-13 8.05 -13 3.1 -13 -2 C-7.27244844 -3.14551031 -4.81458225 -3.2097215 0 0 Z " fill="#120E0E" transform="translate(644,300)"/>
<path d="M0 0 C0 1.65 0 3.3 0 5 C0.66 5 1.32 5 2 5 C2.37125 4.0409375 2.37125 4.0409375 2.75 3.0625 C4 1 4 1 6.125 0.25 C6.74375 0.1675 7.3625 0.085 8 0 C6.92598892 2.91517292 6.22189824 4.77810176 4 7 C4.99 7.66 5.98 8.32 7 9 C7 9.66 7 10.32 7 11 C-2.28482328 13.56133056 -2.28482328 13.56133056 -7 13 C-9.32536063 9.51195905 -9.33457898 8.09859246 -9 4 C-7.05738321 -1.13405866 -5.0884467 -1.20515843 0 0 Z " fill="#261A1B" transform="translate(80,163)"/>
<path d="M0 0 C0.6875 1.75 0.6875 1.75 1 4 C-0.4375 6.25 -0.4375 6.25 -2 8 C-1.34 8 -0.68 8 0 8 C0.625 10.375 0.625 10.375 1 13 C-1 15 -1 15 -3.1640625 15.1953125 C-5.44270833 15.13020833 -7.72135417 15.06510417 -10 15 C-10.33 10.38 -10.66 5.76 -11 1 C-6.46780033 -1.26609984 -4.82227075 -0.92735976 0 0 Z " fill="#09090E" transform="translate(803,474)"/>
<path d="M0 0 C2.1183011 1.12976059 3.35015775 2.14146651 4.875 4 C5.48858021 7.05131779 5.37654785 9.9337188 4.875 13 C3.3125 15.125 3.3125 15.125 0.875 16 C-2.75 15.875 -2.75 15.875 -6.125 15 C-8.125 12 -8.125 12 -8.0625 8.625 C-6.95815411 4.35486255 -4.99412373 0 0 0 Z " fill="#2B2827" transform="translate(724.125,472)"/>
<path d="M0 0 C1.32 0.33 2.64 0.66 4 1 C4.33 2.65 4.66 4.3 5 6 C5.928125 5.175 6.85625 4.35 7.8125 3.5 C10.625 1 10.625 1 14 1 C12.55746343 4.36591866 10.66735273 6.51047079 8 9 C9.32 9.66 10.64 10.32 12 11 C12 11.66 12 12.32 12 13 C7.38 13.33 2.76 13.66 -2 14 C-4.34168764 10.48746854 -4.49623677 9.13530644 -4 5 C-2 2.125 -2 2.125 0 0 Z " fill="#242225" transform="translate(75,450)"/>
<path d="M0 0 C0.33 0.99 0.66 1.98 1 3 C-0.4375 5.6875 -0.4375 5.6875 -2 8 C-1.34 8 -0.68 8 0 8 C0.125 10.375 0.125 10.375 0 13 C-2 15 -2 15 -3.9453125 15.1953125 C-5.96354167 15.13020833 -7.98177083 15.06510417 -10 15 C-10.66 10.38 -11.32 5.76 -12 1 C-6.88190297 -1.04723881 -5.18273772 -1.01622308 0 0 Z " fill="#28292F" transform="translate(673,298)"/>
<path d="M0 0 C1.67542976 0.28604898 3.34385343 0.61781233 5 1 C5.02887236 4.81248426 5.04675492 8.6249407 5.0625 12.4375 C5.07087891 13.52611328 5.07925781 14.61472656 5.08789062 15.73632812 C5.09111328 16.77080078 5.09433594 17.80527344 5.09765625 18.87109375 C5.10289307 19.82943115 5.10812988 20.78776855 5.11352539 21.77514648 C5 24 5 24 4 25 C1.5 25.125 1.5 25.125 -1 25 C-2 24 -2 24 -2.03759766 21.79101562 C-1.99683105 20.83904297 -1.95606445 19.88707031 -1.9140625 18.90625 C-1.84832031 17.36130859 -1.84832031 17.36130859 -1.78125 15.78515625 C-1.7296875 14.70105469 -1.678125 13.61695313 -1.625 12.5 C-1.58117187 11.41589844 -1.53734375 10.33179688 -1.4921875 9.21484375 C-1.12781578 1.12781578 -1.12781578 1.12781578 0 0 Z " fill="#3C3C3C" transform="translate(150,41)"/>
<path d="M0 0 C2.375 1.5 2.375 1.5 4 3 C3.38722388 5.96175123 2.74627478 7.38058783 1 10 C1.66 10 2.32 10 3 10 C3.66 11.65 4.32 13.3 5 15 C4.01 15 3.02 15 2 15 C0.66666667 13.66666667 -0.66666667 12.33333333 -2 11 C-4.1381966 10.2127322 -4.1381966 10.2127322 -6 10 C-6 11.65 -6 13.3 -6 15 C-6.66 15 -7.32 15 -8 15 C-8.33 10.71 -8.66 6.42 -9 2 C-5.51131349 -0.32579101 -4.10281481 -0.41865457 0 0 Z " fill="#201C1B" transform="translate(954,300)"/>
<path d="M0 0 C6.75 0.75 6.75 0.75 9 3 C9.625 5.625 9.625 5.625 10 8 C11.98 8.66 13.96 9.32 16 10 C16 10.66 16 11.32 16 12 C13.35409986 12.02684679 10.70846904 12.04676357 8.0625 12.0625 C6.93038086 12.07506836 6.93038086 12.07506836 5.77539062 12.08789062 C3.85005687 12.09652441 1.92464419 12.05224333 0 12 C-1 11 -1 11 -1.1328125 9.00390625 C-1.13023438 8.19824219 -1.12765625 7.39257812 -1.125 6.5625 C-1.12757812 5.75941406 -1.13015625 4.95632813 -1.1328125 4.12890625 C-1 2 -1 2 0 0 Z " fill="#1F1D1E" transform="translate(73,347)"/>
<path d="M0 0 C-1 3 -1 3 -3.0625 4.1875 C-3.701875 4.455625 -4.34125 4.72375 -5 5 C-4.67 6.32 -4.34 7.64 -4 9 C-2.35 9.33 -0.7 9.66 1 10 C1 10.66 1 11.32 1 12 C-9.70899471 12.38095238 -9.70899471 12.38095238 -15 10 C-15.66 9.34 -16.32 8.68 -17 8 C-16.9375 6.0625 -16.9375 6.0625 -16 4 C-11.12870837 0.24214646 -5.98902752 -0.17614787 0 0 Z " fill="#1B1919" transform="translate(87,208)"/>
<path d="M0 0 C-0.33 0.99 -0.66 1.98 -1 3 C-2.03930664 3.08564209 -3.07861328 3.17128418 -4.14941406 3.25952148 C-8.01118645 3.57862179 -11.87258512 3.90206322 -15.73388672 4.22680664 C-17.40403552 4.36666094 -19.07428291 4.50534321 -20.74462891 4.64282227 C-23.14773099 4.84081729 -25.55044517 5.04304663 -27.953125 5.24609375 C-28.69806213 5.3065538 -29.44299927 5.36701385 -30.21051025 5.42930603 C-33.56864045 5.71690779 -36.75142716 6.10034441 -40 7 C-42.03852453 7.1405879 -44.08185536 7.21987993 -46.125 7.25 C-47.17945313 7.27578125 -48.23390625 7.3015625 -49.3203125 7.328125 C-50.20460937 7.21984375 -51.08890625 7.1115625 -52 7 C-52.66 6.01 -53.32 5.02 -54 4 C-52.80246094 3.95101563 -51.60492188 3.90203125 -50.37109375 3.8515625 C-41.32638534 3.4481644 -32.47134423 2.77366104 -23.5078125 1.4765625 C-15.71475316 0.41781724 -7.86579696 -0.18292551 0 0 Z " fill="#F0DDDF" transform="translate(218,505)"/>
<path d="M0 0 C1.65 0.33 3.3 0.66 5 1 C5 5.62 5 10.24 5 15 C4.01 15 3.02 15 2 15 C1.67 11.37 1.34 7.74 1 4 C0.01 4.99 -0.98 5.98 -2 7 C-3.32 7 -4.64 7 -6 7 C-6 9.64 -6 12.28 -6 15 C-6.99 15 -7.98 15 -9 15 C-9.33 11.04 -9.66 7.08 -10 3 C-6.88742431 3 -4.89234315 3.17361624 -2 4 C-1.34 2.68 -0.68 1.36 0 0 Z " fill="#393A42" transform="translate(913,538)"/>
<path d="M0 0 C0.99386719 0.00902344 1.98773437 0.01804687 3.01171875 0.02734375 C4.15060547 0.04474609 4.15060547 0.04474609 5.3125 0.0625 C5.3125 1.0525 5.3125 2.0425 5.3125 3.0625 C1.6825 3.0625 -1.9475 3.0625 -5.6875 3.0625 C-5.6875 4.3825 -5.6875 5.7025 -5.6875 7.0625 C-2.2225 6.5675 -2.2225 6.5675 1.3125 6.0625 C0.9825 7.0525 0.6525 8.0425 0.3125 9.0625 C-1.02083333 9.39583333 -2.35416667 9.72916667 -3.6875 10.0625 C-4.0175 11.0525 -4.3475 12.0425 -4.6875 13.0625 C-1.7175 13.0625 1.2525 13.0625 4.3125 13.0625 C4.3125 13.7225 4.3125 14.3825 4.3125 15.0625 C1.43038698 16.02320434 -0.38600044 16.16831883 -3.375 16.125 C-5.5096875 16.0940625 -5.5096875 16.0940625 -7.6875 16.0625 C-8.0175 11.1125 -8.3475 6.1625 -8.6875 1.0625 C-5.53819107 0.01273036 -3.29935544 -0.03881595 0 0 Z " fill="#3C3632" transform="translate(784.6875,472.9375)"/>
<path d="M0 0 C0.99386719 0.00902344 1.98773437 0.01804687 3.01171875 0.02734375 C4.15060547 0.04474609 4.15060547 0.04474609 5.3125 0.0625 C5.3125 0.7225 5.3125 1.3825 5.3125 2.0625 C2.90704362 3.26522819 1.36253047 3.16321472 -1.3125 3.125 C-2.53839844 3.11146484 -2.53839844 3.11146484 -3.7890625 3.09765625 C-4.72878906 3.08025391 -4.72878906 3.08025391 -5.6875 3.0625 C-5.3575 4.0525 -5.0275 5.0425 -4.6875 6.0625 C-2.7075 6.0625 -0.7275 6.0625 1.3125 6.0625 C1.3125 6.7225 1.3125 7.3825 1.3125 8.0625 C0.508125 8.35125 -0.29625 8.64 -1.125 8.9375 C-3.8201468 9.79512568 -3.8201468 9.79512568 -4.6875 12.0625 C-1.7175 12.0625 1.2525 12.0625 4.3125 12.0625 C4.3125 13.0525 4.3125 14.0425 4.3125 15.0625 C0.3525 15.0625 -3.6075 15.0625 -7.6875 15.0625 C-8.0175 10.4425 -8.3475 5.8225 -8.6875 1.0625 C-5.53819107 0.01273036 -3.29935544 -0.03881595 0 0 Z " fill="#10141D" transform="translate(968.6875,299.9375)"/>
<path d="M0 0 C0.99386719 0.00902344 1.98773437 0.01804687 3.01171875 0.02734375 C4.15060547 0.04474609 4.15060547 0.04474609 5.3125 0.0625 C5.3125 0.7225 5.3125 1.3825 5.3125 2.0625 C2.90704362 3.26522819 1.36253047 3.16321472 -1.3125 3.125 C-2.53839844 3.11146484 -2.53839844 3.11146484 -3.7890625 3.09765625 C-4.72878906 3.08025391 -4.72878906 3.08025391 -5.6875 3.0625 C-5.3575 4.0525 -5.0275 5.0425 -4.6875 6.0625 C-2.7075 6.0625 -0.7275 6.0625 1.3125 6.0625 C1.3125 6.7225 1.3125 7.3825 1.3125 8.0625 C0.343125 8.35125 -0.62625 8.64 -1.625 8.9375 C-4.79414203 9.70464682 -4.79414203 9.70464682 -5.6875 12.0625 C-2.3875 12.0625 0.9125 12.0625 4.3125 12.0625 C4.3125 13.0525 4.3125 14.0425 4.3125 15.0625 C0.3525 15.0625 -3.6075 15.0625 -7.6875 15.0625 C-8.0175 10.4425 -8.3475 5.8225 -8.6875 1.0625 C-5.53819107 0.01273036 -3.29935544 -0.03881595 0 0 Z " fill="#090E14" transform="translate(938.6875,299.9375)"/>
<path d="M0 0 C2 2 2 2 2.1953125 4.8203125 C2.16050781 6.45613281 2.16050781 6.45613281 2.125 8.125 C2.10695313 9.22070312 2.08890625 10.31640625 2.0703125 11.4453125 C2.04710937 12.28835938 2.02390625 13.13140625 2 14 C1.01 14.33 0.02 14.66 -1 15 C-1 14.01 -1 13.02 -1 12 C-4.3 12 -7.6 12 -11 12 C-10.67 11.01 -10.34 10.02 -10 9 C-8.02 8.67 -6.04 8.34 -4 8 C-4 7.34 -4 6.68 -4 6 C-5.98 6.33 -7.96 6.66 -10 7 C-10.33 5.68 -10.66 4.36 -11 3 C-5.555 2.505 -5.555 2.505 0 2 C0 1.34 0 0.68 0 0 Z " fill="#EFF0F0" transform="translate(944,300)"/>
<path d="M0 0 C0.99 0 1.98 0 3 0 C3 1.65 3 3.3 3 5 C4.32 5.33 5.64 5.66 7 6 C6.38241446 7.9606842 5.75568655 9.91849063 5.125 11.875 C4.60292969 13.51082031 4.60292969 13.51082031 4.0703125 15.1796875 C3 18 3 18 1 20 C0.18395001 18.0848421 -0.62770632 16.16781166 -1.4375 14.25 C-1.88996094 13.18265625 -2.34242188 12.1153125 -2.80859375 11.015625 C-3.73979553 8.6586159 -4.4784072 6.47007165 -5 4 C-2.525 4.495 -2.525 4.495 0 5 C0 3.35 0 1.7 0 0 Z " fill="#151515" transform="translate(887,484)"/>
<path d="M0 0 C0.99386719 0.00902344 1.98773437 0.01804687 3.01171875 0.02734375 C4.15060547 0.04474609 4.15060547 0.04474609 5.3125 0.0625 C5.3125 1.0525 5.3125 2.0425 5.3125 3.0625 C2.0125 3.0625 -1.2875 3.0625 -4.6875 3.0625 C-4.6875 4.3825 -4.6875 5.7025 -4.6875 7.0625 C-2.7075 7.0625 -0.7275 7.0625 1.3125 7.0625 C0.9825 7.7225 0.6525 8.3825 0.3125 9.0625 C-0.3475 9.206875 -1.0075 9.35125 -1.6875 9.5 C-2.3475 9.685625 -3.0075 9.87125 -3.6875 10.0625 C-4.0175 11.0525 -4.3475 12.0425 -4.6875 13.0625 C-0.2325 12.5675 -0.2325 12.5675 4.3125 12.0625 C4.3125 13.0525 4.3125 14.0425 4.3125 15.0625 C0.3525 15.0625 -3.6075 15.0625 -7.6875 15.0625 C-8.0175 10.4425 -8.3475 5.8225 -8.6875 1.0625 C-5.53819107 0.01273036 -3.29935544 -0.03881595 0 0 Z " fill="#272625" transform="translate(927.6875,538.9375)"/>
<path d="M0 0 C1.50433594 0.01353516 1.50433594 0.01353516 3.0390625 0.02734375 C3.80992187 0.03894531 4.58078125 0.05054688 5.375 0.0625 C5.045 1.0525 4.715 2.0425 4.375 3.0625 C1.405 3.0625 -1.565 3.0625 -4.625 3.0625 C-4.625 4.3825 -4.625 5.7025 -4.625 7.0625 C-2.645 6.7325 -0.665 6.4025 1.375 6.0625 C1.045 7.0525 0.715 8.0425 0.375 9.0625 C-0.94803717 9.4346042 -2.28237935 9.76880173 -3.625 10.0625 C-3.955 10.7225 -4.285 11.3825 -4.625 12.0625 C-1.325 12.0625 1.975 12.0625 5.375 12.0625 C5.045 13.0525 4.715 14.0425 4.375 15.0625 C0.745 15.0625 -2.885 15.0625 -6.625 15.0625 C-6.955 10.4425 -7.285 5.8225 -7.625 1.0625 C-4.98041621 -0.25979189 -2.94738699 -0.03427194 0 0 Z " fill="#070709" transform="translate(653.625,296.9375)"/>
<path d="M0 0 C3.1398451 1.56992255 3.42143346 4.22447002 4.625 7.4375 C5.07101562 8.61183594 5.51703125 9.78617188 5.9765625 10.99609375 C7 14 7 14 7 16 C5.35 15.67 3.7 15.34 2 15 C2 15.99 2 16.98 2 18 C1.34 18 0.68 18 0 18 C0 17.01 0 16.02 0 15 C-1.65 15.33 -3.3 15.66 -5 16 C-3.71291613 10.45563871 -2.08135307 5.29798964 0 0 Z " fill="#1E1E1E" transform="translate(883,187)"/>
<path d="M0 0 C0.33 0.99 0.66 1.98 1 3 C-0.134375 2.979375 -1.26875 2.95875 -2.4375 2.9375 C-5.81575674 2.58422523 -5.81575674 2.58422523 -7 4 C-7.25005386 6.95817107 -7.25005386 6.95817107 -7 10 C-5.16116119 12.28728734 -5.16116119 12.28728734 -2.375 12.125 C-1.59125 12.08375 -0.8075 12.0425 0 12 C0 10.68 0 9.36 0 8 C-1.65 8 -3.3 8 -5 8 C-5 7.34 -5 6.68 -5 6 C-1.535 5.505 -1.535 5.505 2 5 C2.4856661 12.40640809 2.4856661 12.40640809 0.3125 15.0625 C-2.70554844 16.28603315 -3.97421345 16.21031462 -7 15 C-9.375 13 -9.375 13 -11 10 C-11.12650739 6.90056886 -10.87478554 3.98166337 -10 1 C-6.78548731 -0.60725635 -3.56387464 -0.05748185 0 0 Z " fill="#32302E" transform="translate(602,297)"/>
<path d="M0 0 C0.66 0 1.32 0 2 0 C2.33 2.97 2.66 5.94 3 9 C3.99 9.33 4.98 9.66 6 10 C6 7.69 6 5.38 6 3 C6.99 3.33 7.98 3.66 9 4 C9 5.98 9 7.96 9 10 C9.99 10 10.98 10 12 10 C12 7.36 12 4.72 12 2 C12.99 2.33 13.98 2.66 15 3 C15 6.3 15 9.6 15 13 C12.87527424 13.05386629 10.75016348 13.09273071 8.625 13.125 C6.84996094 13.15980469 6.84996094 13.15980469 5.0390625 13.1953125 C2 13 2 13 0 11 C-0.1953125 8.3984375 -0.1953125 8.3984375 -0.125 5.375 C-0.10695313 4.37210938 -0.08890625 3.36921875 -0.0703125 2.3359375 C-0.04710938 1.56507813 -0.02390625 0.79421875 0 0 Z " fill="#232326" transform="translate(71,222)"/>
<path d="M0 0 C0.66 0 1.32 0 2 0 C2.33 2.97 2.66 5.94 3 9 C3.99 9.33 4.98 9.66 6 10 C6 7.69 6 5.38 6 3 C6.99 3.33 7.98 3.66 9 4 C9 5.98 9 7.96 9 10 C9.99 10 10.98 10 12 10 C12 7.36 12 4.72 12 2 C12.99 2.33 13.98 2.66 15 3 C15 6.3 15 9.6 15 13 C12.87527424 13.05386629 10.75016348 13.09273071 8.625 13.125 C6.84996094 13.15980469 6.84996094 13.15980469 5.0390625 13.1953125 C2 13 2 13 0 11 C-0.1953125 8.3984375 -0.1953125 8.3984375 -0.125 5.375 C-0.10695313 4.37210938 -0.08890625 3.36921875 -0.0703125 2.3359375 C-0.04710938 1.56507813 -0.02390625 0.79421875 0 0 Z " fill="#232326" transform="translate(71,147)"/>
<path d="M0 0 C0.99 0.33 1.98 0.66 3 1 C3.48590022 8.28850325 3.48590022 8.28850325 1.25 11.5625 C-1 13 -1 13 -3.125 12.8125 C-4.43341635 12.24551958 -5.72456434 11.63771783 -7 11 C-7.33 11.99 -7.66 12.98 -8 14 C-9.32 14 -10.64 14 -12 14 C-13.80230168 10.17010894 -14.19622241 7.21878192 -14 3 C-13.01 3 -12.02 3 -11 3 C-10.34 5.31 -9.68 7.62 -9 10 C-8.34 9.01 -7.68 8.02 -7 7 C-5.68 7.33 -4.36 7.66 -3 8 C-3 8.66 -3 9.32 -3 10 C-2.34 10 -1.68 10 -1 10 C-0.67 6.7 -0.34 3.4 0 0 Z " fill="#1F191C" transform="translate(745,473)"/>
<path d="M0 0 C0.99 0.495 0.99 0.495 2 1 C2.59355614 3.64860427 2.74209269 6.29197322 3 9 C3.99 9.33 4.98 9.66 6 10 C6 8.02 6 6.04 6 4 C6.99 4.33 7.98 4.66 9 5 C8.67 6.98 8.34 8.96 8 11 C9.32 11 10.64 11 12 11 C12 8.36 12 5.72 12 3 C12.66 3 13.32 3 14 3 C15.28317892 6.84953676 15.06643637 9.94738135 15 14 C12.68715544 13.85973717 10.37472409 13.71264442 8.0625 13.5625 C6.13083984 13.44068359 6.13083984 13.44068359 4.16015625 13.31640625 C1 13 1 13 0 12 C-0.07244053 9.98035801 -0.08377188 7.95832876 -0.0625 5.9375 C-0.05347656 4.83277344 -0.04445313 3.72804688 -0.03515625 2.58984375 C-0.02355469 1.73519531 -0.01195313 0.88054687 0 0 Z " fill="#1F2328" transform="translate(71,290)"/>
<path d="M0 0 C0.99 0.495 0.99 0.495 2 1 C2.59355614 3.64860427 2.74209269 6.29197322 3 9 C3.99 9.33 4.98 9.66 6 10 C6 7.69 6 5.38 6 3 C6.66 3.33 7.32 3.66 8 4 C8.625 7.0625 8.625 7.0625 9 10 C9.99 10.33 10.98 10.66 12 11 C12 8.03 12 5.06 12 2 C12.66 2 13.32 2 14 2 C15.3271261 5.9813783 15.06915913 9.85045227 15 14 C12.68690295 13.88658363 10.37449815 13.75896193 8.0625 13.625 C6.77472656 13.55539062 5.48695312 13.48578125 4.16015625 13.4140625 C2.59587891 13.20910156 2.59587891 13.20910156 1 13 C-0.32229189 10.35541621 -0.09677194 8.32238699 -0.0625 5.375 C-0.05347656 4.37210937 -0.04445313 3.36921875 -0.03515625 2.3359375 C-0.02355469 1.56507813 -0.01195313 0.79421875 0 0 Z " fill="#1D191A" transform="translate(71,507)"/>
<path d="M0 0 C0.99 0.495 0.99 0.495 2 1 C2.59355614 3.64860427 2.74209269 6.29197322 3 9 C3.99 9.33 4.98 9.66 6 10 C6 7.69 6 5.38 6 3 C6.66 3.33 7.32 3.66 8 4 C8.625 7.0625 8.625 7.0625 9 10 C9.99 10.33 10.98 10.66 12 11 C12 8.03 12 5.06 12 2 C12.66 2 13.32 2 14 2 C15.3271261 5.9813783 15.06915913 9.85045227 15 14 C12.68690295 13.88658363 10.37449815 13.75896193 8.0625 13.625 C6.77472656 13.55539062 5.48695312 13.48578125 4.16015625 13.4140625 C2.59587891 13.20910156 2.59587891 13.20910156 1 13 C-0.32229189 10.35541621 -0.09677194 8.32238699 -0.0625 5.375 C-0.05347656 4.37210937 -0.04445313 3.36921875 -0.03515625 2.3359375 C-0.02355469 1.56507813 -0.01195313 0.79421875 0 0 Z " fill="#1D191A" transform="translate(71,318)"/>
<path d="M0 0 C0.99 0 1.98 0 3 0 C3 3.63 3 7.26 3 11 C1.68 11.33 0.36 11.66 -1 12 C-3.75 9.5625 -3.75 9.5625 -6 7 C-6.33 9.31 -6.66 11.62 -7 14 C-7.99 14 -8.98 14 -10 14 C-9.67 9.71 -9.34 5.42 -9 1 C-4.25 2.1875 -4.25 2.1875 -2 5 C-2 5.66 -2 6.32 -2 7 C-1.34 7 -0.68 7 0 7 C0 4.69 0 2.38 0 0 Z " fill="#282528" transform="translate(911,299)"/>
<path d="M0 0 C0.99 0 1.98 0 3 0 C3 1.32 3 2.64 3 4 C4.98 4 6.96 4 9 4 C9 2.68 9 1.36 9 0 C9.99 0 10.98 0 12 0 C12 4.29 12 8.58 12 13 C11.01 13 10.02 13 9 13 C9 11.02 9 9.04 9 7 C6.69 7 4.38 7 2 7 C2 9.31 2 11.62 2 14 C1.01 13.67 0.02 13.34 -1 13 C-0.67 8.71 -0.34 4.42 0 0 Z " fill="#252425" transform="translate(574,297)"/>
<path d="M0 0 C1.58294782 -0.05437607 3.16644256 -0.09296271 4.75 -0.125 C5.63171875 -0.14820313 6.5134375 -0.17140625 7.421875 -0.1953125 C10.1135858 0.00860498 11.69904974 0.63448279 14 2 C12.44499019 5.81684226 9.96404505 8.19195732 7 11 C10.63 11 14.26 11 18 11 C18 11.66 18 12.32 18 13 C6.47835991 13.18451025 6.47835991 13.18451025 1 12 C2.466708 8.13322435 4.47201672 6.99014441 8 5 C8.33 4.34 8.66 3.68 9 3 C6.03 2.67 3.06 2.34 0 2 C0 1.34 0 0.68 0 0 Z " fill="#1B1818" transform="translate(71,276)"/>
<path d="M0 0 C3.1348458 2.40115849 4.76979339 3.76263949 5.5 7.6875 C5 10 5 10 2 12 C-0.69921875 12.1953125 -0.69921875 12.1953125 -3.6875 12.125 C-5.17830078 12.09792969 -5.17830078 12.09792969 -6.69921875 12.0703125 C-7.45847656 12.04710937 -8.21773438 12.02390625 -9 12 C-9.33 11.01 -9.66 10.02 -10 9 C-6.04 9 -2.08 9 2 9 C0.66436384 4.05536365 0.66436384 4.05536365 -2 3 C-5.53018797 2.84651357 -8.61527952 2.95854754 -12 4 C-12 3.01 -12 2.02 -12 1 C-7.66643232 -1.23244396 -4.69671265 -1.25804803 0 0 Z " fill="#232328" transform="translate(84,179)"/>
<path d="M0 0 C0.96164062 0.00515625 1.92328125 0.0103125 2.9140625 0.015625 C4.34878906 0.00789063 4.34878906 0.00789063 5.8125 0 C8.54964908 0.26665636 10.19893707 0.86820413 12.5390625 2.265625 C12.5390625 3.255625 12.5390625 4.245625 12.5390625 5.265625 C11.79140625 5.38679688 11.04375 5.50796875 10.2734375 5.6328125 C9.28859375 5.80039062 8.30375 5.96796875 7.2890625 6.140625 C5.82726562 6.38425781 5.82726562 6.38425781 4.3359375 6.6328125 C1.76642133 7.21418348 -0.18164806 7.97402765 -2.4609375 9.265625 C-3.1209375 6.955625 -3.7809375 4.645625 -4.4609375 2.265625 C-2.4609375 0.265625 -2.4609375 0.265625 0 0 Z " fill="#F2F2F2" transform="translate(257.4609375,43.734375)"/>
<path d="M0 0 C1.76923828 0.01353516 1.76923828 0.01353516 3.57421875 0.02734375 C4.47785156 0.03894531 5.38148437 0.05054688 6.3125 0.0625 C6.3125 0.7225 6.3125 1.3825 6.3125 2.0625 C2.6825 2.0625 -0.9475 2.0625 -4.6875 2.0625 C-4.6875 2.7225 -4.6875 3.3825 -4.6875 4.0625 C-3.3675 4.7225 -2.0475 5.3825 -0.6875 6.0625 C-0.6875 6.7225 -0.6875 7.3825 -0.6875 8.0625 C1.6225 8.3925 3.9325 8.7225 6.3125 9.0625 C6.3125 9.7225 6.3125 10.3825 6.3125 11.0625 C1.6925 11.0625 -2.9275 11.0625 -7.6875 11.0625 C-7.3575 10.0725 -7.0275 9.0825 -6.6875 8.0625 C-6.0275 8.0625 -5.3675 8.0625 -4.6875 8.0625 C-4.6875 7.4025 -4.6875 6.7425 -4.6875 6.0625 C-5.326875 5.794375 -5.96625 5.52625 -6.625 5.25 C-8.6875 4.0625 -8.6875 4.0625 -9.6875 1.0625 C-6.26517028 -0.07827657 -3.60076783 -0.03565117 0 0 Z " fill="#2E2B2B" transform="translate(79.6875,304.9375)"/>
<path d="M0 0 C0.98484375 0.00902344 1.9696875 0.01804687 2.984375 0.02734375 C4.10585937 0.04474609 4.10585937 0.04474609 5.25 0.0625 C5.25 0.7225 5.25 1.3825 5.25 2.0625 C1.95 2.0625 -1.35 2.0625 -4.75 2.0625 C-4.09 2.68125 -3.43 3.3 -2.75 3.9375 C-0.75 6.0625 -0.75 6.0625 -0.75 8.0625 C1.56 8.3925 3.87 8.7225 6.25 9.0625 C5.92 9.7225 5.59 10.3825 5.25 11.0625 C2.30859375 11.4765625 2.30859375 11.4765625 -1.3125 11.6875 C-2.51003906 11.76226562 -3.70757812 11.83703125 -4.94140625 11.9140625 C-6.33166016 11.98753906 -6.33166016 11.98753906 -7.75 12.0625 C-7.42 10.7425 -7.09 9.4225 -6.75 8.0625 C-6.09 8.0625 -5.43 8.0625 -4.75 8.0625 C-5.575 7.27875 -6.4 6.495 -7.25 5.6875 C-9.75 3.0625 -9.75 3.0625 -9.75 1.0625 C-6.43929162 0.06140485 -3.44915231 -0.04106134 0 0 Z " fill="#201E1C" transform="translate(79.75,359.9375)"/>
<path d="M0 0 C0.33 0.99 0.66 1.98 1 3 C-0.7015625 3.433125 -0.7015625 3.433125 -2.4375 3.875 C-3.613125 4.24625 -4.78875 4.6175 -6 5 C-6.33 5.66 -6.66 6.32 -7 7 C-5.88625 6.6596875 -5.88625 6.6596875 -4.75 6.3125 C-2 6 -2 6 0.3125 7.4375 C1.1478125 8.2109375 1.1478125 8.2109375 2 9 C1.13088303 11.75220373 0.5527839 13.5656698 -1.75 15.375 C-4.74187809 16.20607725 -7.00587323 15.68048336 -10 15 C-10 14.34 -10 13.68 -10 13 C-5.545 12.505 -5.545 12.505 -1 12 C-1 11.01 -1 10.02 -1 9 C-3.64 9 -6.28 9 -9 9 C-8.6875 5.625 -8.6875 5.625 -8 2 C-4.77208445 -0.1519437 -3.71599191 -0.20086443 0 0 Z " fill="#1C1E22" transform="translate(986,299)"/>
<path d="M0 0 C0.99 0 1.98 0 3 0 C3.268125 0.804375 3.53625 1.60875 3.8125 2.4375 C4.204375 3.283125 4.59625 4.12875 5 5 C5.99 5.33 6.98 5.66 8 6 C8 4.68 8 3.36 8 2 C8.99 2 9.98 2 11 2 C11.33 2.99 11.66 3.98 12 5 C14.97 5.495 14.97 5.495 18 6 C18 6.99 18 7.98 18 9 C13.38 9.33 8.76 9.66 4 10 C1.59067046 5.98445076 0.61510632 4.30574422 0 0 Z " fill="#2A292A" transform="translate(69,484)"/>
<path d="M0 0 C0.99 0 1.98 0 3 0 C3.268125 0.969375 3.53625 1.93875 3.8125 2.9375 C4.204375 3.948125 4.59625 4.95875 5 6 C5.99 6.33 6.98 6.66 8 7 C8.33 5.35 8.66 3.7 9 2 C9.66 2 10.32 2 11 2 C11.33 3.32 11.66 4.64 12 6 C14.97 6.495 14.97 6.495 18 7 C17.67 7.99 17.34 8.98 17 10 C12.38 10 7.76 10 3 10 C0 4 0 4 0 0 Z " fill="#201D1E" transform="translate(69,495)"/>
<path d="M0 0 C2.5 0.1875 2.5 0.1875 5 1 C7.4294516 4.6441774 7.16179575 6.71241272 7 11 C3.49588735 10.6814443 1.4159895 10.30932553 -1.4375 8.1875 C-3 6 -3 6 -2.875 3.875 C-2 2 -2 2 0 0 Z " fill="#F0F0EF" transform="translate(77,393)"/>
<path d="M0 0 C0.99 0 1.98 0 3 0 C3.66 2.31 4.32 4.62 5 7 C5.99 7 6.98 7 8 7 C8 5.35 8 3.7 8 2 C8.99 2 9.98 2 11 2 C11 3.32 11 4.64 11 6 C13.31 6 15.62 6 18 6 C18 6.99 18 7.98 18 9 C13.38 9.33 8.76 9.66 4 10 C1.59067046 5.98445076 0.61510632 4.30574422 0 0 Z " fill="#221D1E" transform="translate(69,237)"/>
<path d="M0 0 C2.5 0.1875 2.5 0.1875 5 1 C7.4294516 4.6441774 7.16179575 6.71241272 7 11 C3.49588735 10.6814443 1.4159895 10.30932553 -1.4375 8.1875 C-3 6 -3 6 -2.875 3.875 C-2 2 -2 2 0 0 Z " fill="#F1F1F0" transform="translate(77,469)"/>
<path d="M0 0 C2.3125 0.125 2.3125 0.125 5 1 C7.02201431 4.20733304 8 6.19154436 8 10 C5.03 10.66 2.06 11.32 -1 12 C-2.24142712 7.03429151 -1.37261666 4.84452938 0 0 Z " fill="#E9E9E9" transform="translate(670,42)"/>
<path d="M0 0 C0.33 1.32 0.66 2.64 1 4 C-2.4019487 6.09350689 -5.05272412 6.17942163 -9 6 C-9 8.97 -9 11.94 -9 15 C-9.33 15 -9.66 15 -10 15 C-10.33 10.38 -10.66 5.76 -11 1 C-6.46780033 -1.26609984 -4.82227075 -0.92735976 0 0 Z " fill="#40302C" transform="translate(803,474)"/>
<path d="M0 0 C0.66 0 1.32 0 2 0 C2 1.65 2 3.3 2 5 C5.465 4.505 5.465 4.505 9 4 C9 2.68 9 1.36 9 0 C9.66 0 10.32 0 11 0 C11 4.29 11 8.58 11 13 C10.01 13 9.02 13 8 13 C8 11.02 8 9.04 8 7 C6.02 7.33 4.04 7.66 2 8 C1.67 9.65 1.34 11.3 1 13 C0.34 13 -0.32 13 -1 13 C-0.67 8.71 -0.34 4.42 0 0 Z " fill="#35312F" transform="translate(607,297)"/>
<path d="M0 0 C1.65 1.65 3.3 3.3 5 5 C7.98090937 4.28596382 7.98090937 4.28596382 9.375 2.4375 C11 1 11 1 13.6875 0.8125 C14.8321875 0.9053125 14.8321875 0.9053125 16 1 C17.60725635 4.21451269 17.05748185 7.43612536 17 11 C16.34 11 15.68 11 15 11 C14.67 8.69 14.34 6.38 14 4 C13.01 3.67 12.02 3.34 11 3 C10.7525 3.969375 10.505 4.93875 10.25 5.9375 C9.8375 6.948125 9.425 7.95875 9 9 C6.875 9.875 6.875 9.875 5 10 C0 4.5 0 4.5 0 0 Z " fill="#312D2D" transform="translate(70,134)"/>
<path d="M0 0 C2.875 -0.125 2.875 -0.125 6 0 C8 2 8 2 8.4375 4.375 C8 7 8 7 5.6875 9.3125 C3 11 3 11 0 11 C0 7.37 0 3.74 0 0 Z " fill="#EBECEB" transform="translate(764,476)"/>
<path d="M0 0 C0.1875 3.375 0.1875 3.375 0 7 C-3 9 -3 9 -7 9 C-8.1577506 5.52674819 -8.06866652 2.63932552 -8 -1 C-4.37673261 -2.2077558 -3.35853631 -1.54311128 0 0 Z " fill="#E8EAEC" transform="translate(641,301)"/>
<path d="M0 0 C0.99 0 1.98 0 3 0 C3.02687279 1.81242052 3.04633715 3.62495233 3.0625 5.4375 C3.07410156 6.44683594 3.08570312 7.45617187 3.09765625 8.49609375 C3 11 3 11 2 12 C-3.52479577 12.2857653 -7.76465209 11.74511597 -13 10 C-13 9.34 -13 8.68 -13 8 C-8.71 8.33 -4.42 8.66 0 9 C0 6.03 0 3.06 0 0 Z " fill="#100D0C" transform="translate(83,333)"/>
<path d="M0 0 C2.4375 0.25 2.4375 0.25 5 1 C7 4 7 4 6.75 6.0625 C6 8 6 8 4 10 C-0.55555556 9.44444444 -0.55555556 9.44444444 -2 8 C-1.28 1.28 -1.28 1.28 0 0 Z " fill="#EEEBE7" transform="translate(721,476)"/>
<path d="M0 0 C0.99 0.33 1.98 0.66 3 1 C3 2.65 3 4.3 3 6 C6.63 6 10.26 6 14 6 C14 6.99 14 7.98 14 9 C10.04 9 6.08 9 2 9 C2 10.65 2 12.3 2 14 C1.34 14 0.68 14 0 14 C0 9.38 0 4.76 0 0 Z " fill="#302C31" transform="translate(73,260)"/>
<path d="M0 0 C3.0625 0.25 3.0625 0.25 6 1 C6.33 1.66 6.66 2.32 7 3 C5.02 3.33 3.04 3.66 1 4 C1 4.66 1 5.32 1 6 C2.65 6 4.3 6 6 6 C6 7.32 6 8.64 6 10 C3.6875 10.6875 3.6875 10.6875 1 11 C-0.8125 9.9375 -0.8125 9.9375 -2 8 C-2.3125 4.9375 -2.3125 4.9375 -2 2 C-1.34 1.34 -0.68 0.68 0 0 Z " fill="#E0E2E2" transform="translate(596,299)"/>
<path d="M0 0 C0.66 0 1.32 0 2 0 C2 3.96 2 7.92 2 12 C4.97 12 7.94 12 11 12 C11 12.66 11 13.32 11 14 C5.06 14.495 5.06 14.495 -1 15 C-1.02685412 12.68756208 -1.04632841 10.3750373 -1.0625 8.0625 C-1.07410156 6.77472656 -1.08570313 5.48695313 -1.09765625 4.16015625 C-1 1 -1 1 0 0 Z " fill="#3A3532" transform="translate(704,472)"/>
<path d="M0 0 C4.29 0 8.58 0 13 0 C12.67 0.66 12.34 1.32 12 2 C10.35 2 8.7 2 7 2 C7.01160156 2.67546875 7.02320313 3.3509375 7.03515625 4.046875 C7.04869141 5.38492187 7.04869141 5.38492187 7.0625 6.75 C7.07410156 7.63171875 7.08570313 8.5134375 7.09765625 9.421875 C7.00826198 11.7818838 6.66912821 13.74498524 6 16 C5.34 16 4.68 16 4 16 C4 11.38 4 6.76 4 2 C2.68 2 1.36 2 0 2 C0 1.34 0 0.68 0 0 Z " fill="#282627" transform="translate(675,298)"/>
<path d="M0 0 C-0.33 0.99 -0.66 1.98 -1 3 C-1.66 3.309375 -2.32 3.61875 -3 3.9375 C-5.20605562 4.82027141 -5.20605562 4.82027141 -5.75 7.125 C-5.8325 7.74375 -5.915 8.3625 -6 9 C-11.75 9.125 -11.75 9.125 -14 8 C-13 5 -13 5 -10 3 C-10.33 2.34 -10.66 1.68 -11 1 C-7.27569643 0.30710631 -3.78916254 -0.11144596 0 0 Z " fill="#333233" transform="translate(87,208)"/>
<path d="M0 0 C3.96 0 7.92 0 12 0 C12 0.66 12 1.32 12 2 C10.35 2 8.7 2 7 2 C7.01160156 2.67546875 7.02320313 3.3509375 7.03515625 4.046875 C7.04869141 5.38492187 7.04869141 5.38492187 7.0625 6.75 C7.07410156 7.63171875 7.08570313 8.5134375 7.09765625 9.421875 C7.00826198 11.7818838 6.66912821 13.74498524 6 16 C5.34 16 4.68 16 4 16 C4 11.38 4 6.76 4 2 C2.68 2 1.36 2 0 2 C0 1.34 0 0.68 0 0 Z " fill="#2A2626" transform="translate(989,301)"/>
<path d="M0 0 C0 0.99 0 1.98 0 3 C-1.98 3 -3.96 3 -6 3 C-6.33 3.99 -6.66 4.98 -7 6 C-5.02 6 -3.04 6 -1 6 C-1 6.99 -1 7.98 -1 9 C-2.65 9 -4.3 9 -6 9 C-6 10.98 -6 12.96 -6 15 C-6.66 15 -7.32 15 -8 15 C-8.66 10.71 -9.32 6.42 -10 2 C-5.7900275 0.316011 -4.21047434 -0.24059853 0 0 Z " fill="#1C1215" transform="translate(671,297)"/>
<path d="M0 0 C3.96 0 7.92 0 12 0 C12 0.66 12 1.32 12 2 C10.35 2.33 8.7 2.66 7 3 C6.67 7.29 6.34 11.58 6 16 C5.34 16 4.68 16 4 16 C4 11.71 4 7.42 4 3 C2.35 3 0.7 3 -1 3 C-0.67 2.01 -0.34 1.02 0 0 Z " fill="#1C1D21" transform="translate(885,540)"/>
<path d="M0 0 C0.66 0 1.32 0 2 0 C2.99 2.31 3.98 4.62 5 7 C5.33 6.34 5.66 5.68 6 5 C7.98 5.66 9.96 6.32 12 7 C12 7.66 12 8.32 12 9 C8.7 9.66 5.4 10.32 2 11 C-1 7 -1 7 -0.6875 3.25 C-0.3471875 1.64125 -0.3471875 1.64125 0 0 Z " fill="#2F333C" transform="translate(75,165)"/>
<path d="M0 0 C0.99 0.33 1.98 0.66 3 1 C2.01 1.495 2.01 1.495 1 2 C1.99 4.97 2.98 7.94 4 11 C2.68 11.33 1.36 11.66 0 12 C-0.66 11.34 -1.32 10.68 -2 10 C-2.99 10.495 -2.99 10.495 -4 11 C-4.36630156 7.06225823 -4.30233203 5.43460229 -2 2.125 C-1.34 1.42375 -0.68 0.7225 0 0 Z " fill="#38282A" transform="translate(75,450)"/>
<path d="M0 0 C0.66 0 1.32 0 2 0 C2.33 1.65 2.66 3.3 3 5 C6.63 5.33 10.26 5.66 14 6 C14 6.99 14 7.98 14 9 C10.04 8.67 6.08 8.34 2 8 C2 9.98 2 11.96 2 14 C1.34 14 0.68 14 0 14 C0 9.38 0 4.76 0 0 Z " fill="#160507" transform="translate(73,193)"/>
<path d="M0 0 C3.96 0 7.92 0 12 0 C12 0.66 12 1.32 12 2 C10.02 2 8.04 2 6 2 C6 6.62 6 11.24 6 16 C5.34 16 4.68 16 4 16 C3.67 11.71 3.34 7.42 3 3 C2.01 2.67 1.02 2.34 0 2 C0 1.34 0 0.68 0 0 Z " fill="#131114" transform="translate(916,301)"/>
<path d="M0 0 C0.99386719 0.00902344 1.98773437 0.01804687 3.01171875 0.02734375 C4.15060547 0.04474609 4.15060547 0.04474609 5.3125 0.0625 C5.3125 0.7225 5.3125 1.3825 5.3125 2.0625 C1.88317929 3.77716036 -1.90466065 3.11654056 -5.6875 3.0625 C-6.0175 7.0225 -6.3475 10.9825 -6.6875 15.0625 C-7.0175 15.0625 -7.3475 15.0625 -7.6875 15.0625 C-8.0175 10.4425 -8.3475 5.8225 -8.6875 1.0625 C-5.53819107 0.01273036 -3.29935544 -0.03881595 0 0 Z " fill="#22170C" transform="translate(968.6875,299.9375)"/>
<path d="M0 0 C0.66 0 1.32 0 2 0 C2.33 1.65 2.66 3.3 3 5 C6.63 5.33 10.26 5.66 14 6 C14 6.66 14 7.32 14 8 C10.04 8 6.08 8 2 8 C2 9.65 2 11.3 2 13 C1.34 13 0.68 13 0 13 C0 8.71 0 4.42 0 0 Z " fill="#100507" transform="translate(73,435)"/>
<path d="M0 0 C0.66 0 1.32 0 2 0 C2.33 1.65 2.66 3.3 3 5 C6.63 5.33 10.26 5.66 14 6 C14 6.66 14 7.32 14 8 C10.04 8 6.08 8 2 8 C2 9.65 2 11.3 2 13 C1.34 13 0.68 13 0 13 C0 8.71 0 4.42 0 0 Z " fill="#100507" transform="translate(73,408)"/>
<path d="M0 0 C1.916588 -0.02712153 3.8332873 -0.04645097 5.75 -0.0625 C7.35101563 -0.07990234 7.35101563 -0.07990234 8.984375 -0.09765625 C11.53368501 -0.01510087 13.57933591 0.25382442 16 1 C16 1.99 16 2.98 16 4 C10.72 3.67 5.44 3.34 0 3 C0 2.01 0 1.02 0 0 Z " fill="#202021" transform="translate(72,373)"/>
<path d="M0 0 C2.64 0 5.28 0 8 0 C7.67 0.99 7.34 1.98 7 3 C5.66666667 3.33333333 4.33333333 3.66666667 3 4 C2.67 4.99 2.34 5.98 2 7 C4.97 7 7.94 7 11 7 C11 7.66 11 8.32 11 9 C7.37 9 3.74 9 0 9 C0 6.03 0 3.06 0 0 Z " fill="#090A0C" transform="translate(778,479)"/>
<path d="M0 0 C0.91007813 0.00902344 1.82015625 0.01804687 2.7578125 0.02734375 C3.45648437 0.03894531 4.15515625 0.05054688 4.875 0.0625 C4.875 0.7225 4.875 1.3825 4.875 2.0625 C2.895 2.0625 0.915 2.0625 -1.125 2.0625 C-1.10179687 2.74957031 -1.07859375 3.43664062 -1.0546875 4.14453125 C-1.03664063 5.04558594 -1.01859375 5.94664062 -1 6.875 C-0.97679687 7.76832031 -0.95359375 8.66164063 -0.9296875 9.58203125 C-1.125 12.0625 -1.125 12.0625 -3.125 15.0625 C-3.125 11.1025 -3.125 7.1425 -3.125 3.0625 C-4.445 3.0625 -5.765 3.0625 -7.125 3.0625 C-7.125 2.4025 -7.125 1.7425 -7.125 1.0625 C-4.60024538 -0.19987731 -2.81299534 -0.03606404 0 0 Z " fill="#120F10" transform="translate(813.125,473.9375)"/>
<path d="M0 0 C1.79258558 0.08693141 3.58415144 0.19510504 5.375 0.3125 C6.87160156 0.39951172 6.87160156 0.39951172 8.3984375 0.48828125 C9.25695312 0.65714844 10.11546875 0.82601562 11 1 C11.66 1.99 12.32 2.98 13 4 C12.195625 4.45375 11.39125 4.9075 10.5625 5.375 C7.91143428 6.74725665 7.91143428 6.74725665 7 9 C6.34 9 5.68 9 5 9 C4.9175 8.21625 4.835 7.4325 4.75 6.625 C4.27193661 3.85250896 4.27193661 3.85250896 1.9375 2.6875 C1.298125 2.460625 0.65875 2.23375 0 2 C0 1.34 0 0.68 0 0 Z " fill="#E8E8E8" transform="translate(75,159)"/>
<path d="M0 0 C0.33 0 0.66 0 1 0 C1.33 2.31 1.66 4.62 2 7 C-1.69172595 10.53790403 -5.09390595 10.59115883 -10 11 C-10 8.36 -10 5.72 -10 3 C-8.515 3.99 -8.515 3.99 -7 5 C-7 5.99 -7 6.98 -7 8 C-5.02 7.34 -3.04 6.68 -1 6 C-0.67 4.02 -0.34 2.04 0 0 Z " fill="#382B2B" transform="translate(641,302)"/>
<path d="M0 0 C0.66 0 1.32 0 2 0 C3.3271261 3.9813783 3.06915913 7.85045227 3 12 C-3.93 11.505 -3.93 11.505 -11 11 C-11 10.67 -11 10.34 -11 10 C-5.555 9.505 -5.555 9.505 0 9 C0 6.03 0 3.06 0 0 Z " fill="#323438" transform="translate(83,509)"/>
<path d="M0 0 C0.66 0 1.32 0 2 0 C3.3271261 3.9813783 3.06915913 7.85045227 3 12 C-3.93 11.505 -3.93 11.505 -11 11 C-11 10.67 -11 10.34 -11 10 C-5.555 9.505 -5.555 9.505 0 9 C0 6.03 0 3.06 0 0 Z " fill="#323438" transform="translate(83,320)"/>
<path d="M0 0 C2.8125 0.1875 2.8125 0.1875 6 1 C9.08258387 4.61406385 9.73516249 8.32120399 10 13 C9.34 13.66 8.68 14.32 8 15 C7.01 14.67 6.02 14.34 5 14 C5.66 14 6.32 14 7 14 C6.34 10.7 5.68 7.4 5 4 C3.02 3.34 1.04 2.68 -1 2 C-0.67 1.34 -0.34 0.68 0 0 Z " fill="#29282F" transform="translate(77,391)"/>
<path d="M0 0 C0.99 0 1.98 0 3 0 C3 0.66 3 1.32 3 2 C5.31 2.33 7.62 2.66 10 3 C9.67 3.66 9.34 4.32 9 5 C6.05859375 5.4140625 6.05859375 5.4140625 2.4375 5.625 C1.23996094 5.69976562 0.04242188 5.77453125 -1.19140625 5.8515625 C-2.58166016 5.92503906 -2.58166016 5.92503906 -4 6 C-3.67 4.68 -3.34 3.36 -3 2 C-2.01 2 -1.02 2 0 2 C0 1.34 0 0.68 0 0 Z " fill="#131211" transform="translate(76,366)"/>
<path d="M0 0 C0.99 0 1.98 0 3 0 C1.92598892 2.91517292 1.22189824 4.77810176 -1 7 C-1.99 7 -2.98 7 -4 7 C-4.33 7.99 -4.66 8.98 -5 10 C-7 8 -7 8 -7.125 5.375 C-7.08375 4.59125 -7.0425 3.8075 -7 3 C-5.02 3.99 -5.02 3.99 -3 5 C-2.690625 4.360625 -2.38125 3.72125 -2.0625 3.0625 C-1 1 -1 1 0 0 Z " fill="#0B080B" transform="translate(85,163)"/>
<path d="M0 0 C5.75 0.75 5.75 0.75 8 3 C8.57416268 10.23444976 8.57416268 10.23444976 6.5 13 C6.005 13.33 5.51 13.66 5 14 C4.34 13.34 3.68 12.68 3 12 C3.66 11.34 4.32 10.68 5 10 C5.50014953 7.54258463 5.50014953 7.54258463 5 5 C3.11652637 3.27479815 3.11652637 3.27479815 1 2 C0.67 1.34 0.34 0.68 0 0 Z " fill="#2C2B2D" transform="translate(766,473)"/>
<path d="M0 0 C0.48695652 7.42608696 0.48695652 7.42608696 -1.75 10.0625 C-4.3531775 11.14715729 -5.41481845 11.01560704 -8 10 C-6.68 9.67 -5.36 9.34 -4 9 C-4 8.34 -4 7.68 -4 7 C-3.34 7 -2.68 7 -2 7 C-2 5.68 -2 4.36 -2 3 C-3.65 3 -5.3 3 -7 3 C-7 2.34 -7 1.68 -7 1 C-4.50935112 0.31292445 -2.62113708 0 0 0 Z " fill="#1E1E1E" transform="translate(604,302)"/>
<path d="M0 0 C4 1 4 1 6 4 C4.68 4 3.36 4 2 4 C2.185625 4.556875 2.37125 5.11375 2.5625 5.6875 C3.07551165 8.399133 2.6640724 10.34371039 2 13 C1.01 13 0.02 13 -1 13 C-0.67 8.71 -0.34 4.42 0 0 Z " fill="#090E12" transform="translate(902,300)"/>
<path d="M0 0 C0.99 0 1.98 0 3 0 C3 0.66 3 1.32 3 2 C5.31 2.33 7.62 2.66 10 3 C10 3.66 10 4.32 10 5 C5.38 5 0.76 5 -4 5 C-3.67 4.01 -3.34 3.02 -3 2 C-2.01 2 -1.02 2 0 2 C0 1.34 0 0.68 0 0 Z " fill="#191616" transform="translate(76,311)"/>
<path d="M0 0 C0.99 0.33 1.98 0.66 3 1 C3 4.3 3 7.6 3 11 C0.69 11 -1.62 11 -4 11 C-3.67 10.01 -3.34 9.02 -3 8 C-2.01 8 -1.02 8 0 8 C0 5.36 0 2.72 0 0 Z " fill="#2F333B" transform="translate(83,224)"/>
<path d="M0 0 C0.99 0.33 1.98 0.66 3 1 C3 4.3 3 7.6 3 11 C0.69 11 -1.62 11 -4 11 C-3.67 10.01 -3.34 9.02 -3 8 C-2.01 8 -1.02 8 0 8 C0 5.36 0 2.72 0 0 Z " fill="#2F333B" transform="translate(83,149)"/>
<path d="M0 0 C0.33 0.66 0.66 1.32 1 2 C4.63 2 8.26 2 12 2 C12 2.99 12 3.98 12 5 C8.04 5 4.08 5 0 5 C0 3.35 0 1.7 0 0 Z " fill="#272A2E" transform="translate(931,310)"/>
<path d="M0 0 C0.33 0.99 0.66 1.98 1 3 C4.63 3 8.26 3 12 3 C11.67 3.99 11.34 4.98 11 6 C7.37 6 3.74 6 0 6 C0 4.02 0 2.04 0 0 Z " fill="#26292C" transform="translate(647,306)"/>
<path d="M0 0 C0.99 0 1.98 0 3 0 C3.268125 0.94875 3.53625 1.8975 3.8125 2.875 C4.74986588 6.25267273 4.74986588 6.25267273 8 8 C8 8.66 8 9.32 8 10 C6.35 10 4.7 10 3 10 C0.96564469 6.27034861 0 4.33094958 0 0 Z " fill="#2A2426" transform="translate(69,495)"/>
<path d="M0 0 C0.33 0 0.66 0 1 0 C1 3.63 1 7.26 1 11 C-0.32 10.34 -1.64 9.68 -3 9 C-3 8.34 -3 7.68 -3 7 C-3.66 7 -4.32 7 -5 7 C-4.34 5.68 -3.68 4.36 -3 3 C-2.34 3 -1.68 3 -1 3 C-0.67 2.01 -0.34 1.02 0 0 Z " fill="#E5E9EB" transform="translate(960,303)"/>
<path d="M0 0 C0.99 0 1.98 0 3 0 C3 3.96 3 7.92 3 12 C2.01 12 1.02 12 0 12 C0 8.04 0 4.08 0 0 Z " fill="#2F3234" transform="translate(897,301)"/>
<path d="M0 0 C0.99 0.495 0.99 0.495 2 1 C2.22511131 3.02600175 2.4440878 5.05459276 2.55859375 7.08984375 C2.86342704 9.40424812 2.86342704 9.40424812 6 11 C6.33 11.66 6.66 12.32 7 13 C5.00045254 13.04254356 2.99958364 13.04080783 1 13 C0 12 0 12 -0.09765625 9.27734375 C-0.08605469 8.17519531 -0.07445313 7.07304687 -0.0625 5.9375 C-0.05347656 4.83277344 -0.04445313 3.72804688 -0.03515625 2.58984375 C-0.02355469 1.73519531 -0.01195313 0.88054687 0 0 Z " fill="#2C2626" transform="translate(71,290)"/>
<path d="M0 0 C0.99 0 1.98 0 3 0 C3 3.96 3 7.92 3 12 C2.01 12 1.02 12 0 12 C0 8.04 0 4.08 0 0 Z " fill="#2D231C" transform="translate(587,298)"/>
<path d="M0 0 C0.99 0 1.98 0 3 0 C3 4.29 3 8.58 3 13 C2.01 13 1.02 13 0 13 C0 8.71 0 4.42 0 0 Z " fill="#454253" transform="translate(583,297)"/>
<path d="M0 0 C0.66 0 1.32 0 2 0 C2 3.96 2 7.92 2 12 C1.01 12 0.02 12 -1 12 C-1.02687279 10.18757948 -1.04633715 8.37504767 -1.0625 6.5625 C-1.07410156 5.55316406 -1.08570313 4.54382813 -1.09765625 3.50390625 C-1 1 -1 1 0 0 Z " fill="#2A2321" transform="translate(900,540)"/>
<path d="M0 0 C0.99 0.33 1.98 0.66 3 1 C3.35233161 6.37305699 3.35233161 6.37305699 3 9 C1 11 1 11 -1 12 C-1.66 11.34 -2.32 10.68 -3 10 C-2.34 10 -1.68 10 -1 10 C-0.67 6.7 -0.34 3.4 0 0 Z " fill="#3A383B" transform="translate(745,473)"/>
<path d="M0 0 C0.66 0 1.32 0 2 0 C2 1.65 2 3.3 2 5 C3.98 5 5.96 5 8 5 C8 5.33 8 5.66 8 6 C6.02 6 4.04 6 2 6 C1.67 8.31 1.34 10.62 1 13 C0.34 13 -0.32 13 -1 13 C-0.67 8.71 -0.34 4.42 0 0 Z " fill="#1D1717" transform="translate(607,297)"/>
<path d="M0 0 C3.38266921 0.2818891 4.81072018 0.83064437 7.375 3.125 C9.47828033 6.84618828 8.95918017 8.92348429 8 13 C7.67 13 7.34 13 7 13 C6.773125 11.72125 6.54625 10.4425 6.3125 9.125 C5.83899916 6.93067868 5.83899916 6.93067868 5 5 C2.51686936 3.40311361 2.51686936 3.40311361 0 3 C0 2.01 0 1.02 0 0 Z " fill="#3A3436" transform="translate(77,466)"/>
<path d="M0 0 C0.99 0 1.98 0 3 0 C4.125 7.75 4.125 7.75 3 10 C3.99 10.33 4.98 10.66 6 11 C4.68 11 3.36 11 2 11 C0.19769832 7.17010894 -0.19622241 4.21878192 0 0 Z " fill="#403E3D" transform="translate(731,476)"/>
<path d="M0 0 C2.64 0 5.28 0 8 0 C7.34 0.66 6.68 1.32 6 2 C6.3185177 4.10820797 6.3185177 4.10820797 7 6 C4.69 5.34 2.38 4.68 0 4 C0 2.68 0 1.36 0 0 Z " fill="#CBCFD3" transform="translate(923,542)"/>
<path d="M0 0 C1.67542976 0.28604898 3.34385343 0.61781233 5 1 C5 2.32 5 3.64 5 5 C3.35 5 1.7 5 0 5 C-0.5625 3.0625 -0.5625 3.0625 -1 1 C-0.67 0.67 -0.34 0.34 0 0 Z " fill="#D9DBDC" transform="translate(949,302)"/>
<path d="M0 0 C0.66 0.66 1.32 1.32 2 2 C4.21072977 2.24253813 4.21072977 2.24253813 6.625 2.125 C7.44226563 2.10695313 8.25953125 2.08890625 9.1015625 2.0703125 C9.72804688 2.04710937 10.35453125 2.02390625 11 2 C11 2.99 11 3.98 11 5 C7.37 5 3.74 5 0 5 C0 3.35 0 1.7 0 0 Z " fill="#0D0F12" transform="translate(921,549)"/>
<path d="M0 0 C3.96 0.33 7.92 0.66 12 1 C12 1.66 12 2.32 12 3 C8.37 3 4.74 3 1 3 C0.67 2.01 0.34 1.02 0 0 Z " fill="#1D1A18" transform="translate(74,188)"/>
<path d="M0 0 C0.66 0 1.32 0 2 0 C2.25 3.3125 2.25 3.3125 2 7 C0.3125 8.9375 0.3125 8.9375 -2 10 C-4.75 10.1875 -4.75 10.1875 -7 10 C-7 9.34 -7 8.68 -7 8 C-5.5459375 7.62875 -5.5459375 7.62875 -4.0625 7.25 C-0.88411102 6.36758095 -0.88411102 6.36758095 -0.125 4 C-0.04178835 2.66861361 0 1.33398422 0 0 Z " fill="#161416" transform="translate(727,478)"/>
<path d="M0 0 C2.475 0.495 2.475 0.495 5 1 C5.33 2.32 5.66 3.64 6 5 C4.02 5 2.04 5 0 5 C0 3.35 0 1.7 0 0 Z " fill="#DBDCDD" transform="translate(795,482)"/>
<path d="M0 0 C0.33 0 0.66 0 1 0 C1.66 2.64 2.32 5.28 3 8 C1.68 8.33 0.36 8.66 -1 9 C-1.33 8.67 -1.66 8.34 -2 8 C-1.28 1.28 -1.28 1.28 0 0 Z " fill="#E3E6E8" transform="translate(76,453)"/>
<path d="M0 0 C3 0.3125 3 0.3125 6 1 C6.33 1.66 6.66 2.32 7 3 C6.030625 3.12375 5.06125 3.2475 4.0625 3.375 C3.051875 3.58125 2.04125 3.7875 1 4 C0.67 4.66 0.34 5.32 0 6 C-0.38218767 4.34385343 -0.71395102 2.67542976 -1 1 C-0.67 0.67 -0.34 0.34 0 0 Z " fill="#EDEDEB" transform="translate(596,299)"/>
<path d="M0 0 C0.66 0 1.32 0 2 0 C2.66 2.64 3.32 5.28 4 8 C2.35 7.67 0.7 7.34 -1 7 C-0.67 4.69 -0.34 2.38 0 0 Z " fill="#E1E5E6" transform="translate(75,165)"/>
<path d="M0 0 C-0.57344937 2.86724686 -0.8614515 3.8614515 -3 6 C-3 4.68 -3 3.36 -3 2 C-3.66 2 -4.32 2 -5 2 C-5.33 2.66 -5.66 3.32 -6 4 C-6.33 2.68 -6.66 1.36 -7 0 C-4.3333581 -1.33332095 -2.83319697 -0.67102033 0 0 Z " fill="#363230" transform="translate(80,163)"/>
<path d="M0 0 C1.65 0 3.3 0 5 0 C6.60725635 3.21451269 6.05748185 6.43612536 6 10 C5.34 10 4.68 10 4 10 C3.67 7.69 3.34 5.38 3 3 C2.01 2.67 1.02 2.34 0 2 C0 1.34 0 0.68 0 0 Z " fill="#292328" transform="translate(81,135)"/>
<path d="M0 0 C0 0.66 0 1.32 0 2 C-0.99 2 -1.98 2 -3 2 C-3 1.34 -3 0.68 -3 0 C-8.61 0 -14.22 0 -20 0 C-20 -0.33 -20 -0.66 -20 -1 C-17.79317093 -1.22370596 -15.58440027 -1.42830391 -13.375 -1.625 C-11.53035156 -1.79902344 -11.53035156 -1.79902344 -9.6484375 -1.9765625 C-5.94681886 -2.00034163 -3.40982003 -1.37441976 0 0 Z " fill="#616161" transform="translate(956,526)"/>
<path d="M0 0 C0.7425 0.45375 1.485 0.9075 2.25 1.375 C4.46930578 2.68640796 6.67967822 3.88280803 9 5 C9 5.66 9 6.32 9 7 C4.87248551 6.39301257 1.6678852 4.96189209 -2 3 C-1.34 2.67 -0.68 2.34 0 2 C0 1.34 0 0.68 0 0 Z " fill="#3F3D3D" transform="translate(75,400)"/>
<path d="M0 0 C1.32 0.33 2.64 0.66 4 1 C4.33 2.32 4.66 3.64 5 5 C3.35 5.33 1.7 5.66 0 6 C0 4.02 0 2.04 0 0 Z " fill="#ECEAE7" transform="translate(75,350)"/>
<path d="M0 0 C1.98 0 3.96 0 6 0 C5.67 1.32 5.34 2.64 5 4 C3.02 4 1.04 4 -1 4 C-0.67 2.68 -0.34 1.36 0 0 Z " fill="#DDDCDB" transform="translate(665,299)"/>
<path d="M0 0 C2.97 0 5.94 0 9 0 C8.01 1.485 8.01 1.485 7 3 C3.375 3.6875 3.375 3.6875 0 4 C0 2.68 0 1.36 0 0 Z " fill="#CCD1D9" transform="translate(779,476)"/>
<path d="M0 0 C1.65 0.33 3.3 0.66 5 1 C5 1.66 5 2.32 5 3 C-0.28 3 -5.56 3 -11 3 C-11 2.67 -11 2.34 -11 2 C-7.37 2 -3.74 2 0 2 C0 1.34 0 0.68 0 0 Z " fill="#4E5257" transform="translate(84,356)"/>
<path d="M0 0 C2.475 0.495 2.475 0.495 5 1 C5 2.32 5 3.64 5 5 C3.35 5 1.7 5 0 5 C0 3.35 0 1.7 0 0 Z " fill="#EFEFED" transform="translate(665,306)"/>
<path d="M0 0 C0.33 0.66 0.66 1.32 1 2 C1.66 2 2.32 2 3 2 C2.67 6.29 2.34 10.58 2 15 C1.67 15 1.34 15 1 15 C0.67 10.05 0.34 5.1 0 0 Z " fill="#C0C0C0" transform="translate(684,54)"/>
<path d="M0 0 C2.64 0 5.28 0 8 0 C7.67 0.99 7.34 1.98 7 3 C5.0625 3.5625 5.0625 3.5625 3 4 C2.34 4.66 1.68 5.32 1 6 C0.67 4.02 0.34 2.04 0 0 Z " fill="#161B21" transform="translate(778,479)"/>
<path d="M0 0 C0.33 0.99 0.66 1.98 1 3 C-1.64 3.33 -4.28 3.66 -7 4 C-7 3.01 -7 2.02 -7 1 C-4.53721199 -0.231394 -2.7204945 -0.07159196 0 0 Z " fill="#292A2E" transform="translate(986,299)"/>
<path d="M0 0 C0 0.99 0 1.98 0 3 C-0.66 3.66 -1.32 4.32 -2 5 C0.31 5.33 2.62 5.66 5 6 C5 6.33 5 6.66 5 7 C1.37 7 -2.26 7 -6 7 C-4.77065985 3.31197956 -3.06140622 2.27643027 0 0 Z " fill="#A6B0BA" transform="translate(84,280)"/>
<path d="M0 0 C0.66 0 1.32 0 2 0 C2.33 1.65 2.66 3.3 3 5 C1.25 6.125 1.25 6.125 -1 7 C-3.25 6.125 -3.25 6.125 -5 5 C-3.35 5 -1.7 5 0 5 C-0.2784375 4.0409375 -0.2784375 4.0409375 -0.5625 3.0625 C-0.706875 2.381875 -0.85125 1.70125 -1 1 C-0.67 0.67 -0.34 0.34 0 0 Z " fill="#37363C" transform="translate(801,482)"/>
<path d="M0 0 C0.99 0 1.98 0 3 0 C3 2.31 3 4.62 3 7 C2.01 7.33 1.02 7.66 0 8 C0 5.36 0 2.72 0 0 Z " fill="#2D343F" transform="translate(83,333)"/>
<path d="M0 0 C0.99 0 1.98 0 3 0 C3 1.32 3 2.64 3 4 C4.98 4 6.96 4 9 4 C9 4.33 9 4.66 9 5 C4.545 5.495 4.545 5.495 0 6 C0 4.02 0 2.04 0 0 Z " fill="#655951" transform="translate(574,297)"/>
<path d="M0 0 C0.33 1.65 0.66 3.3 1 5 C-1.97 4.505 -1.97 4.505 -5 4 C-4.67 3.01 -4.34 2.02 -4 1 C-2 0 -2 0 0 0 Z " fill="#D4D9DE" transform="translate(78,212)"/>
<path d="M0 0 C3.3 0 6.6 0 10 0 C10 0.99 10 1.98 10 3 C6.7 2.67 3.4 2.34 0 2 C0 1.34 0 0.68 0 0 Z " fill="#191A1B" transform="translate(77,199)"/>
<path d="M0 0 C0.99 0 1.98 0 3 0 C3.33 1.98 3.66 3.96 4 6 C2.02 6 0.04 6 -2 6 C-1.34 5.67 -0.68 5.34 0 5 C0 3.35 0 1.7 0 0 Z " fill="#7E7E7E" transform="translate(887,484)"/>
<path d="M0 0 C0.391875 0.639375 0.78375 1.27875 1.1875 1.9375 C3.38472296 4.43778819 4.75791433 4.64950425 8 5 C6 7 6 7 3.4375 7.1875 C1 7 1 7 0 6 C-0.04080783 4.00041636 -0.04254356 1.99954746 0 0 Z " fill="#070707" transform="translate(72,457)"/>
<path d="M0 0 C0.99 0.33 1.98 0.66 3 1 C2.34 1 1.68 1 1 1 C1 3.64 1 6.28 1 9 C-0.32 9 -1.64 9 -3 9 C-2.44271087 5.65626525 -1.64826111 2.96687001 0 0 Z " fill="#D9D9D4" transform="translate(82,292)"/>
<path d="M0 0 C0.33 0 0.66 0 1 0 C1.33 2.64 1.66 5.28 2 8 C1.34 8 0.68 8 0 8 C0 8.66 0 9.32 0 10 C-0.66 9.67 -1.32 9.34 -2 9 C-1.125 1.125 -1.125 1.125 0 0 Z " fill="#B1BDCB" transform="translate(730,476)"/>
<path d="M0 0 C-0.54226981 3.79588866 -2.20127563 5.47211993 -5 8 C-5.36625971 3.48279689 -5.36625971 3.48279689 -3.625 1.1875 C-2 0 -2 0 0 0 Z " fill="#171B22" transform="translate(77,467)"/>
<path d="M0 0 C3.96 0.33 7.92 0.66 12 1 C12 1.33 12 1.66 12 2 C8.7 2 5.4 2 2 2 C1.67 2.99 1.34 3.98 1 5 C0.67 3.35 0.34 1.7 0 0 Z " fill="#221C19" transform="translate(930,301)"/>
<path d="M0 0 C0.66 0.99 1.32 1.98 2 3 C1.125 5.6875 1.125 5.6875 0 8 C-1.65 7.67 -3.3 7.34 -5 7 C-4.0409375 6.6596875 -4.0409375 6.6596875 -3.0625 6.3125 C-0.72806339 5.14749104 -0.72806339 5.14749104 -0.25 2.375 C-0.1675 1.59125 -0.085 0.8075 0 0 Z " fill="#0C0F19" transform="translate(85,474)"/>
<path d="M0 0 C0.66 0.99 1.32 1.98 2 3 C1.67 3.66 1.34 4.32 1 5 C1.99 5 2.98 5 4 5 C4 5.66 4 6.32 4 7 C2.35 7 0.7 7 -1 7 C-0.67 4.69 -0.34 2.38 0 0 Z " fill="#19110D" transform="translate(978,301)"/>
<path d="M0 0 C-1.75 4.875 -1.75 4.875 -4 6 C-4 5.34 -4 4.68 -4 4 C-4.66 3.67 -5.32 3.34 -6 3 C-3.375 0 -3.375 0 0 0 Z " fill="#302D32" transform="translate(88,163)"/>
<path d="M0 0 C0.99 0 1.98 0 3 0 C3.625 2.3125 3.625 2.3125 4 5 C3.01 6.485 3.01 6.485 2 8 C0.74335022 5.09399739 0 3.20395416 0 0 Z " fill="#281D1B" transform="translate(69,484)"/>
<path d="M0 0 C1.98 0 3.96 0 6 0 C6 0.99 6 1.98 6 3 C4.02 3 2.04 3 0 3 C0 2.01 0 1.02 0 0 Z " fill="#F2F1EF" transform="translate(795,476)"/>
<path d="M0 0 C-0.33 1.32 -0.66 2.64 -1 4 C-1.66 4 -2.32 4 -3 4 C-3 3.01 -3 2.02 -3 1 C-4.98 1 -6.96 1 -9 1 C-9 0.67 -9 0.34 -9 0 C-2.25 -1.125 -2.25 -1.125 0 0 Z " fill="#3F3F44" transform="translate(804,475)"/>
<path d="M0 0 C3 3.75 3 3.75 3 6 C0.36 6 -2.28 6 -5 6 C-3.68 5.67 -2.36 5.34 -1 5 C-0.67 3.35 -0.34 1.7 0 0 Z " fill="#02050A" transform="translate(81,352)"/>
<path d="M0 0 C2.97 0 5.94 0 9 0 C9 0.99 9 1.98 9 3 C5.85375007 3.26218749 4.38162983 3.24754367 1.6875 1.5 C1.130625 1.005 0.57375 0.51 0 0 Z " fill="#4B4D4F" transform="translate(964,312)"/>
<path d="M0 0 C0.99 1.485 0.99 1.485 2 3 C4.56282742 3.72965366 4.56282742 3.72965366 7 4 C6.67 4.66 6.34 5.32 6 6 C4.02 6 2.04 6 0 6 C0 4.02 0 2.04 0 0 Z " fill="#010102" transform="translate(962,309)"/>
<path d="M0 0 C0.99 0 1.98 0 3 0 C3 2.31 3 4.62 3 7 C1.5 5.75 1.5 5.75 0 4 C0 2.68 0 1.36 0 0 Z " fill="#3A2B28" transform="translate(69,495)"/>
<path d="M0 0 C0.66 0 1.32 0 2 0 C2 0.99 2 1.98 2 3 C2.66 3 3.32 3 4 3 C4 3.99 4 4.98 4 6 C2.68 5.67 1.36 5.34 0 5 C0 3.35 0 1.7 0 0 Z " fill="#311E19" transform="translate(71,396)"/>
<path d="M0 0 C2.97 0.495 2.97 0.495 6 1 C6.33 2.32 6.66 3.64 7 5 C6.01 4.34 5.02 3.68 4 3 C2.34450469 2.61500109 0.6777567 2.27206865 -1 2 C-0.67 1.34 -0.34 0.68 0 0 Z " fill="#0D0E11" transform="translate(77,391)"/>
<path d="M0 0 C0.99 0 1.98 0 3 0 C3 2.31 3 4.62 3 7 C2.01 7.495 2.01 7.495 1 8 C0.67 5.36 0.34 2.72 0 0 Z " fill="#0F1725" transform="translate(641,300)"/>
<path d="M0 0 C1.32 0.66 2.64 1.32 4 2 C3.67 3.32 3.34 4.64 3 6 C1.68 4.68 0.36 3.36 -1 2 C-0.67 1.34 -0.34 0.68 0 0 Z " fill="#191F26" transform="translate(954,301)"/>
<path d="M0 0 C0 0.66 0 1.32 0 2 C-2.64 2.33 -5.28 2.66 -8 3 C-8 2.34 -8 1.68 -8 1 C-5.29120665 -0.35439668 -2.99066732 -0.06501451 0 0 Z " fill="#070506" transform="translate(954,300)"/>
<path d="M0 0 C3.3 0.66 6.6 1.32 10 2 C10 2.33 10 2.66 10 3 C7.03 3 4.06 3 1 3 C0.67 3.99 0.34 4.98 0 6 C-1.125 2.25 -1.125 2.25 0 0 Z " fill="#23292F" transform="translate(648,297)"/>
<path d="M0 0 C1.98 0 3.96 0 6 0 C6.33 0.99 6.66 1.98 7 3 C4.36 2.67 1.72 2.34 -1 2 C-0.67 1.34 -0.34 0.68 0 0 Z " fill="#1C1D1E" transform="translate(596,297)"/>
<path d="M0 0 C-0.75 4.75 -0.75 4.75 -3 7 C-3 6.34 -3 5.68 -3 5 C-3.99 4.67 -4.98 4.34 -6 4 C-2.25 0 -2.25 0 0 0 Z " fill="#34373E" transform="translate(81,136)"/>
</svg>
